STARTFONT 2.1
COMMENT
COMMENT Converted from OpenType font "Font 90 Icons.ttf" by "otf2bdf 3.0".
COMMENT
FONT -FreeType-Font 90 Icons-Medium-R-Normal--42-300-100-100-P-157-ISO10646-1
SIZE 30 100 100
FONTBOUNDINGBOX 45 43 0 -8
STARTPROPERTIES 19
FOUNDRY "FreeType"
FAMILY_NAME "Font 90 Icons"
WEIGHT_NAME "Medium"
SLANT "R"
SETWIDTH_NAME "Normal"
ADD_STYLE_NAME ""
PIXEL_SIZE 42
POINT_SIZE 300
RESOLUTION_X 100
RESOLUTION_Y 100
SPACING "P"
AVERAGE_WIDTH 157
CHARSET_REGISTRY "ISO10646"
CHARSET_ENCODING "1"
FONT_ASCENT 35
FONT_DESCENT 8
COPYRIGHT "Typeface © (el-harrak.blogspot.com). <darrati10@gmail.com>. All Rights Reserved"
_OTF_FONTFILE "Font 90 Icons.ttf"
_OTF_PSNAME "Font 90 Icons"
ENDPROPERTIES
CHARS 242
STARTCHAR 0000
ENCODING 0
SWIDTH 0 0
DWIDTH 0 0
BBX 0 0 0 0
BITMAP
ENDCHAR
STARTCHAR 001D
ENCODING 29
SWIDTH 0 0
DWIDTH 0 0
BBX 0 0 0 0
BITMAP
ENDCHAR
STARTCHAR 0020
ENCODING 32
SWIDTH 240 0
DWIDTH 10 0
BBX 0 0 0 0
BITMAP
ENDCHAR
STARTCHAR 0021
ENCODING 33
SWIDTH 984 0
DWIDTH 41 0
BBX 41 41 0 -7
BITMAP
00001C000000
0003FFE00000
001FFF7C0000
003FFFCE0000
00FFFFE38000
01FFFFF0C000
03FFFFF86000
07FFFFF83000
0FFFF7FC1800
0FFFC1FC0800
1FFFC1FC0400
3FFFC1FC0600
3FFFC1FC0200
7FFFE3FC0200
7FFFFFF80300
7FFFFFF80100
7FFFFFF00100
FFFFFFF00100
FFFFFFC00180
FFFFFF800180
FFFFFC000180
FFFF00000180
FFFE00000180
FFFC00000180
7FF800000100
7FF000000100
7FF000000300
7FE008000300
3FE03E000200
3FE03E000600
1FE03E000400
1FE03E000C00
0FE01C001800
07F000003000
03F000006000
01F80000C000
00FC00018000
007E00070000
001F001C0000
0007FFF00000
00007F000000
ENDCHAR
STARTCHAR 0022
ENCODING 34
SWIDTH 984 0
DWIDTH 41 0
BBX 41 33 0 -3
BITMAP
0000FFC00000
0003FFE00000
000380600000
000300600000
000300200000
000300600000
3FFFFFFFFE00
7FFFFFFFFF00
7FFFFFFFFF00
FFFFFFFFFF80
FFFFFFFFFF80
FFFFFFFFFF80
FFFFFFFFFF80
FFFFFFFFFF80
FFFFFFFFFF80
FFFFFFFFFF80
FFFFFFFFFF80
FFFFFFFFFF80
FFFFFFFFFF80
FFFFFFFFFF80
FFFFFFFFFF80
FFFFFFFFFF80
FFFFFFFFFF80
FFFFFFFFFF80
FFFFFFFFFF80
FFFFFFFFFF80
FFFFFFFFFF80
FFFFFFFFFF80
FFFFFFFFFF80
FFFFFFFFFF80
7FFFFFFFFF00
7FFFFFFFFF00
1FFFFFFFFC00
ENDCHAR
STARTCHAR 0023
ENCODING 35
SWIDTH 984 0
DWIDTH 41 0
BBX 39 43 1 -8
BITMAP
0007C00000
003FF80000
F8FFFF0000
79FFFFE000
7BFFFFFFF0
79FFFFFFF0
79FFFFFFF0
7DFFFFFFF0
7DFFFFFFF0
3DFFFFFFF0
3CFFFFFFF8
3CFFFFFFF8
3EFFFFFFF8
3EFFFFFFF8
1EFFFFFFF8
1EFFFFFFF8
1E7FFFFFF8
1E7FFFFFFC
1F7FFFFFFC
1F7FFFFFFC
0F7F00FFFC
0F3C001FFC
0F300007FC
0FA00001FE
0F80000018
0780000000
0780000000
0780000000
0780000000
07C0000000
07C0000000
03C0000000
03C0000000
03C0000000
03C0000000
03E0000000
03E0000000
01E0000000
01E0000000
01E0000000
01F0000000
01F0000000
00E0000000
ENDCHAR
STARTCHAR 0024
ENCODING 36
SWIDTH 984 0
DWIDTH 41 0
BBX 41 41 0 -7
BITMAP
010000000000
07C000000000
0FE000000000
3FF000000000
7FF800000000
7FFC00000000
FFFE00000000
FFFF00000000
FFFF80000000
7FFFE0000000
7FFFF0000000
3FFFE8000000
1FFFDC000000
0FFFBF000000
07FF7F800000
03FEFF800000
01FDFF000000
00FBFE000000
0077FC000000
002FF8000000
003FFC000000
001FEE000000
000FC7000000
000783000000
000301800000
000200C00000
000000600000
000000300000
000000180000
0000000C0000
000000060000
000000010000
000000008000
000000004000
000000002000
000000001000
000000000800
000000000400
000000000200
000000000100
000000000080
ENDCHAR
STARTCHAR 0025
ENCODING 37
SWIDTH 984 0
DWIDTH 41 0
BBX 39 43 1 -8
BITMAP
0000380000
00007C0000
0000FE0000
0000FE0000
0000FE0000
0007FFC000
001FFFF000
007FFFFC00
00FFFFFE00
39FFFFFF78
7FFC7C7FFC
7FF87C3FFC
FFE0380FFE
FFE0380FFC
7FF0381FFC
3FF8383FF8
1FF8307FF0
1FFE38FFF8
3F7F7BF9F8
3E07FFC0F8
3E01FF00F8
3E00FE00F8
3E00FF00F8
3E03FF80F8
3F1FFFF8F8
3FFE38FFF8
1FFC387FF0
1FF8383FF8
7FF0381FFC
7FE0380FFE
FFE07C0FFE
7FF07C1FFE
7FFC7C7FFC
3DFF7DFF78
00FFFFFF00
007FFFFC00
003FFFF800
000FFFE000
0001FF0000
0000FE0000
0000FE0000
00007C0000
00007C0000
ENDCHAR
STARTCHAR 0026
ENCODING 38
SWIDTH 984 0
DWIDTH 41 0
BBX 41 41 0 -7
BITMAP
00001E000000
0003FFE00000
001FFFF80000
003F007E0000
00F8000F8000
01E00003C000
03C0FF81E000
0707FFF07000
0E0FFFF83800
0E1FFFFC3800
1C3FFFFE1C00
387FFFFF0E00
38FFFFFF8E00
31F3FFFFC600
71F9FFFFC700
63FCFFCFC300
63FE7F9FE300
63FF3F3FE300
E3FF9E7FE380
E3FFCCFFE380
E3FFE1FFE380
E3FFE3FFE380
E3FFE3FFE380
E3FFFFFFE300
63FFFFFFE300
63FFFFFFE300
71FFFFFFC700
31FFFFFFC600
38FFFFFF8E00
387FFFFF0E00
1C7FFFFF1C00
1C3FFFFE1800
0E0FFFF83800
0707FFF07000
0381FFC0E000
01E00003C000
00F0000F8000
007E003F0000
001FFFFC0000
0007FFF00000
00007F000000
ENDCHAR
STARTCHAR 0027
ENCODING 39
SWIDTH 984 0
DWIDTH 41 0
BBX 41 41 0 -7
BITMAP
0003E0000000
003FFC000000
00FFFF000000
01FFFFC00000
07FFFFE00000
0FFFFFF00000
0FFE7FF80000
1FF007F80000
3FC003FC0000
3F83C1FC0000
7F03C0FE0000
7F03C07E0000
7E03C07E0000
7E03C07F0000
FE7FFE3F0000
FC7FFE3F0000
FC7FFE3F0000
FE7FFE3F0000
7E03C07F0000
7E03C07F0000
7F03C07E0000
7F03C0FE0000
3F83C1FC0000
3FC003FC0000
1FE007FE0000
0FFC3FFF0000
0FFFFFFF8000
07FFFFFFC000
03FFFFFFE000
00FFFFFFF000
003FFDFFF800
0007E0FFFC00
0000007FFE00
0000003FFF00
0000001FFF00
0000000FFF00
00000007FF80
00000003FF00
00000001FF00
00000000FE00
000000007C00
ENDCHAR
STARTCHAR 0028
ENCODING 40
SWIDTH 984 0
DWIDTH 41 0
BBX 41 41 0 -7
BITMAP
000FF0000000
007FFE000000
00FFFF800000
03FFFFC00000
07FFFFE00000
0FFFFFF00000
1FFC1FF80000
1FE007FC0000
3FC003FC0000
3F8001FE0000
7F0000FE0000
7E00007E0000
7E00007F0000
FE00003F0000
FE7FFE3F0000
FC7FFE3F0000
FC7FFE3F0000
FE3FFC3F0000
7E00007F0000
7E00007E0000
7F00007E0000
7F0000FE0000
3F8001FC0000
3FC003FC0000
1FF007FE0000
0FFE7FFF0000
0FFFFFFF8000
07FFFFFFC000
01FFFFFFE000
00FFFFFFF000
003FFDFFF800
0003C0FFFC00
0000007FFE00
0000003FFF00
0000001FFF00
0000000FFF80
00000007FF80
00000003FF80
00000001FF00
00000000FE00
000000003C00
ENDCHAR
STARTCHAR 0029
ENCODING 41
SWIDTH 984 0
DWIDTH 41 0
BBX 41 30 0 -2
BITMAP
7FFFFFFFFF00
FFFFFFFFFF80
F80000000F80
FC0000001F80
FE0000003F80
EF0000007B80
E7800000F380
E3C00001E380
E1E00003C380
E0F000078380
E078000F0380
E03C001E0380
E01E003C0380
E00F00780380
E00780F00380
E007C1F80380
E00FE3FC0380
E01CFF9E0380
E0387F0E0380
E0703E070380
E0E000038380
E1C00001C380
E3800000E380
E70000007380
EE0000003B80
FC0000001F80
F80000000F80
FFFFFFFFFF80
7FFFFFFFFF80
7FFFFFFFFF00
ENDCHAR
STARTCHAR 002A
ENCODING 42
SWIDTH 984 0
DWIDTH 41 0
BBX 35 43 3 -8
BITMAP
0000E00000
0001F00000
0001F00000
0001F00000
0001F00000
0001F00000
0001F00000
0001F00000
0001F00000
0001F00000
0001F00000
01C1F0F000
03F1F3F000
03FDFFF000
01FFFFE000
00FFFFC000
007FFF8000
3FBFFF7F80
7FDFFEFFC0
3FEFFDFF80
DFF7FBFF60
EFFBF7FEE0
F7FDEFFDE0
FBFEDFFBE0
FDFFFFF7E0
FEFFFFEFE0
FF7FFFDFE0
FFBFFFBFE0
FFDFFF7FE0
FFEFFEFFE0
FFF7FDFFE0
FFEBFAFFE0
FFDDF77FE0
FFBE4FBFE0
FF7FFFDFE0
FEFFFFEFE0
FDFFFFF7E0
FBFFFFFBE0
F7FFFFFDE0
EFFFFFFEE0
DFFFFFFF60
3FFFFFFF80
7FFFFFFFC0
ENDCHAR
STARTCHAR 002B
ENCODING 43
SWIDTH 984 0
DWIDTH 41 0
BBX 41 40 0 -7
BITMAP
FFFFFFFFFF80
FFFFFFFFFF80
FFFFFFFFFF80
FFFFFFFFFF80
FFFFFFFFFF80
F803FFE00F80
F807FFF00F80
F80FFFF80F80
F80FFFF80F80
F807FFF00F80
F803FFE00F80
F881FFC04F80
F983FFE0CF80
FBC7FFF1EF80
FFEFFFFBFF80
FFFFFFFFFF80
FFFFFFFFFF80
FFFFFFFFFF80
FFFFFFFFFF80
FFFFFFFFFF80
FFFFFFFFFF80
FFFFFFFFFF80
FFFFFFFFFF80
FFFFFFFFFF80
FFEFFFFBFF80
FBC7FFF1EF80
F983FFE0CF80
F881FFC04F80
F801FFC00F80
F803FFE00F80
F807FFF00F80
F80FFFF80F80
F807FFF00F80
F803FFE00F80
FFFFFFFFFF80
FFFFFFFFFF80
FFFFFFFFFF80
FFFFFFFFFF80
FFFFFFFFFF80
FFFFFFFFFF80
ENDCHAR
STARTCHAR 002C
ENCODING 44
SWIDTH 984 0
DWIDTH 41 0
BBX 41 40 0 -7
BITMAP
0000000FE000
000001FFF000
000003FFF800
000007FFFC00
00000FFFFE00
00001FFF7F00
00003FFE3F80
00007FFC1F80
0000FFFE3F00
0001FFFF7F00
0003FFFFFF00
0007FFFFFF00
000FFFFFFF00
001FFFFFFE00
003FFFFFFE00
007FFFFFFE00
00F7FFFFFE00
01E3FFFFFC00
03F1FFFFF800
07B8FFFFF000
0F1C7FFFE000
1F8E3FFFC000
3FC71FFF8000
7FE38FFF0000
FFF1C7FE0000
3FF8E3FC0000
1FFC71F80000
0FFE38F00000
07FF1DE00000
03FF8FC00000
01FFC7800000
00FFEF000000
007FFE000000
003FFC000000
001FF8000000
000FF0000000
0007E0000000
0003C0000000
000180000000
000100000000
ENDCHAR
STARTCHAR 002D
ENCODING 45
SWIDTH 984 0
DWIDTH 41 0
BBX 41 41 0 -7
BITMAP
000008000000
0003FFE00000
000FFFF80000
003F007E0000
00F8000F8000
01E00003C000
03C00001E000
07800000F000
0FC000107800
0EE000303800
1C7000701C00
383800F00E00
381C01F00E00
300E03F00600
700707F00700
7007FFF00700
6007FFF00300
6007FFF00300
E007FFF00380
E007FFF00380
E007FFF00380
E007FFF00380
E007FFF00380
E007FFF00300
6007FFF00300
7007FFF00700
700007F00700
700003F00600
380001F40E00
380000F60E00
1C0000771C00
1E000033BC00
0F000031F800
07800000F000
03C00001E000
01E00003C000
00F8000F8000
007E007F0000
001FFFFC0000
0007FFF00000
00007F000000
ENDCHAR
STARTCHAR 002E
ENCODING 46
SWIDTH 984 0
DWIDTH 41 0
BBX 35 43 3 -8
BITMAP
1FFFFFFF80
1FFFFFFFC0
18000001C0
18000001C0
18000001C0
18000001C0
18000001C0
18000001C0
18000001C0
18000001C0
18000001C0
18000001C0
18000001C0
18000001C0
18000001C0
18000001C0
18000001C0
18000001C0
18000001C0
18000001C0
18000001C0
1FFFFFFF80
0000000000
0000000000
1FFFFFFF80
1FFFFFFFC0
1FFFFFFFC0
1FFFFC07C0
1FFFFC07C0
1FFFFFFFC0
1FFFFFFFC0
1FFFFFFFC0
0FFFFFFF80
0000600000
0000600000
0000600000
0000600000
0000600000
001FFF0000
001FFF0000
FFFFFFFFE0
FFFFFFFFE0
001FFF0000
ENDCHAR
STARTCHAR 002F
ENCODING 47
SWIDTH 984 0
DWIDTH 41 0
BBX 41 41 0 -7
BITMAP
04007F001000
0E00FF803800
0601FFC03000
0703FFE07000
0707FFF07000
0387FFF0E000
E387FFF0E300
6387FFF0E300
71C7FFF1C700
71C7FFF1C700
71C7FFF1C700
71C7FFF1CF00
39E7FFF3CE00
39E7FFF3CE00
39E7FFF3CE00
39E7FFF3CE00
39E7FFF38E00
39E7FFF38E00
39E7FFF3CE00
39E7FFF3CE00
39E7FFF3CE00
39C7FFF3CE00
71C7FFF1C700
71C7FFF1C700
71C7FFF1C700
71C7FFF1C700
6387FFF0E300
E383FFE0E380
4383FFE0E100
0701FFC07000
0700FF807000
06007F003000
0E007F003800
04007F001000
00007F000000
00007F000000
00007F000000
00007F000000
00007F000000
00007F000000
00007F000000
ENDCHAR
STARTCHAR 0030
ENCODING 48
SWIDTH 984 0
DWIDTH 41 0
BBX 41 41 0 -7
BITMAP
00001C000000
0003FFE00000
000FFFF80000
003FFFFE0000
00FFFFFF8000
01FFFFFFC000
03FFFFFFE000
07F7FFF7F000
0FE7FFE3F800
0FC3FFE1F800
1F81FFC0FC00
3F01FFC07E00
3E00FF803E00
3E00FF803E00
7C007F001F00
7C007E001F00
7C007F001F00
7800FF800F00
F801E3800F80
F801C1C00F80
F80181C00F80
FFFFC1FFFF80
FFFFC1FFFF80
FFFFE3FFFF80
7FFFFFFFFF00
7FFFFFFFFF00
7FFF80FFFF00
7FFF00FFFF00
3FFF007FFE00
3FFE007FFE00
1FFE003FFC00
1FFC001FFC00
0FFC001FF800
07F8000FF000
03F8001FE000
01FF007FC000
00FFFFFF8000
007FFFFF0000
001FFFFC0000
0007FFF00000
0000FF800000
ENDCHAR
STARTCHAR 0031
ENCODING 49
SWIDTH 984 0
DWIDTH 41 0
BBX 39 43 1 -8
BITMAP
0000FE0000
0001FF0000
0001FF0000
0001FF0000
0001FF0000
0009FF2000
0039FF1800
00F9FF1E00
01F9FF1F00
03F9FF1F80
07F9FF1FC0
0FF9FF1FE0
1FE1FF0FF0
1FC1FF07F0
3F81FF03F8
3F01FF01F8
7F01FF01FC
7E01FF00FC
FE01FF00FC
FC01FF007E
FC01FF007E
FC01FF007E
FC01FF007E
FC01FF007E
FC0000007E
FC0000007E
FC0000007E
FC0000007E
FE000000FC
7E000000FC
7F000001FC
7F000001F8
3F800003F8
3FC00007F0
1FE0000FF0
0FF8003FE0
07FE00FFC0
03FFFFFF80
01FFFFFF00
00FFFFFE00
007FFFF800
001FFFF000
0003FF8000
ENDCHAR
STARTCHAR 0032
ENCODING 50
SWIDTH 984 0
DWIDTH 41 0
BBX 39 43 1 -8
BITMAP
0000380000
00007C0000
0000FE0000
0000FE0000
0000FE0000
0000FE0000
0000FE0000
0000FE0000
0000FC0000
38007C0078
7E007C00FC
7F807C03FC
FFC07807FE
FFE0380FFC
7FF0381FFC
3FF0383FF8
1FF8307FE0
03FE38FF80
007F7BF800
0007FFC000
0001FF0000
0000FE0000
0000FF0000
0003FF8000
001FFFF800
01FE38FF00
07FC387FE0
1FF8383FF8
7FF0381FFC
7FE0380FFE
FFC07807FE
FF807C03FE
7F007C01FC
3C007C0078
00007C0000
0000FE0000
0000FE0000
0000FE0000
0000FE0000
0000FE0000
0000FE0000
00007C0000
00007C0000
ENDCHAR
STARTCHAR 0033
ENCODING 51
SWIDTH 984 0
DWIDTH 41 0
BBX 41 38 0 -6
BITMAP
000008000000
000008000000
00001C000000
00001C000000
00003E000000
00003E000000
00007F000000
00007F000000
0000FF800000
0000FF800000
0001FFC00000
0001FFC00000
001FFFFC0000
0FFFFFFFF000
FFFFFFFFFF80
3FFFFFFFFE00
1FFFFFFFFC00
0FFFFFFFF800
07FFFFFFF000
03FFFFFFE000
01FFFFFFC000
00FFFFFF8000
007FFFFF0000
003FFFFE0000
003FFFFE0000
003FFFFE0000
003FFFFE0000
003FFFFE0000
003FFFFE0000
007FFFFF0000
007FFFFF0000
007FF7FF0000
007FC1FF0000
007F007F0000
007C001F0000
00F000078000
00E000038000
008000008000
ENDCHAR
STARTCHAR 0034
ENCODING 52
SWIDTH 984 0
DWIDTH 41 0
BBX 41 29 0 -1
BITMAP
3FFFFFFFFE00
3FFFFFFFFE00
1FFFFFFFFC00
EFFFFFFFFB80
F7FFFFFFF780
FBFFFFFFEF80
FDFFFFFFDF80
FEFFFFFFBF80
FF7FFFFF7F80
FFBFFFFEFF80
FFDFFFFDFF80
FFEFFFFBFF80
FFF7FFF7FF80
FFFBFFEFFF80
FFFDFFDFFF80
FFF8FF9FFF80
FFF37F6FFF80
FFE7BCF7FF80
FFCFC1FBFF80
FFDFFFFDFF80
FFBFFFFEFF80
FF7FFFFF7F80
FEFFFFFFBF80
FDFFFFFFDF80
FBFFFFFFEF80
F7FFFFFFF780
EFFFFFFFFB80
1FFFFFFFFC00
3FFFFFFFFE00
ENDCHAR
STARTCHAR 0035
ENCODING 53
SWIDTH 984 0
DWIDTH 41 0
BBX 41 32 0 -4
BITMAP
00001C1F0000
00003E3F0000
0000E33F0000
0001C1FF0000
00071CFF0000
000E7E3F0000
0018FF9F0000
0071FFC70000
00E7FFF38000
038FFFF8E000
073FFFFC7000
1C7FFFFF1C00
39FFFFFF8E00
E3FFFFFFC380
43FFFFFFC100
03FFFFFFC000
03FFFFFFC000
03FFFFFFC000
03FF80FFC000
03FF80FFC000
03FF80FFC000
03FF80FFC000
03FF80FFC000
03FF80FFC000
03FF80FFC000
03FF80FFC000
03FF80FFC000
03FF80FFC000
03FF80FFC000
03FF80FFC000
01FF80FFC000
00FF80FF0000
ENDCHAR
STARTCHAR 0036
ENCODING 54
SWIDTH 984 0
DWIDTH 41 0
BBX 41 43 0 -8
BITMAP
000000030000
03E0000F8000
03F0001FC000
07F0001FC000
07F0001FC000
03F0000FC000
03E0000F8000
008000000000
0FF8003FE000
3FFE007FF000
7FFF00FFF800
7FFF80FFFC00
FFFF81FFFC00
FFFF81DFDC00
EFFB81DFFE00
EFFB81FFEE00
EFFB83BFEE00
EFFB83BFFE00
EFFB83BFF700
EFFB87FFF700
EFFB877FF700
EFFB877FFF80
EFFB87FFFB80
EFFB80FFF800
6FFB80FFFC00
0F7800FFFC00
0F7801FFFC00
0F7801FFFC00
0F7801FFFE00
0F78021DE000
0F78001DE000
0F78001DE000
0F78001DE000
0F78001DE000
0F78001DE000
0F78001DE000
0F78001DE000
0F78001DE000
0F78001DE000
0F78001DE000
0F78001DE000
0F78001DE000
0630001CC000
ENDCHAR
STARTCHAR 0037
ENCODING 55
SWIDTH 984 0
DWIDTH 41 0
BBX 41 31 0 -2
BITMAP
0007E0000000
003FFC000000
00FEFF000000
03F81F800000
07F00FE00000
0FF00FE00000
1FE00FF00000
1FE00FF80000
3FF00FFC0000
3FF01FFC0000
7FF83FFC0000
783FFC3E0000
701FF80E0000
E01FF00E0000
E00FF0060000
E00FF0060000
E00FF0060000
E01FF00E0000
703FF81E0000
7C7E7E3E0000
7FF81FFE0000
7FF00FFC0000
3FF00FFC0000
3FE00FF80000
1FE00FF00000
0FF00FF80100
07F01FF80780
03F83FFC3F00
01FFFF1FFE00
007FFE0FF800
000FF0010000
ENDCHAR
STARTCHAR 0038
ENCODING 56
SWIDTH 984 0
DWIDTH 41 0
BBX 31 43 5 -8
BITMAP
7FFFFFFC
FFFFFFFE
FFFFFFFE
FFFFFFFE
E000000E
E000000E
E000000E
E000000E
E000000E
E000000E
E000000E
F000000E
FFFFFFFE
FFFFFFFE
FFFFFFFE
E0783C0E
E0783C0E
E0783C0E
E0783C0E
E0783C0E
F0F83E1E
FFFFFFFE
FFFFFFFE
FFFFFFFE
E0783E0E
E0783C0E
E0783C0E
E0783C0E
E0783C0E
E0783E0E
FFFFFFFE
FFFFFFFE
FFFFFFFE
FFFFFFFE
E0783C0E
E0783C0E
E0783C0E
E0783C0E
E0783C0E
FFFFFFFE
FFFFFFFE
FFFFFFFE
7FFFFFFE
ENDCHAR
STARTCHAR 0039
ENCODING 57
SWIDTH 984 0
DWIDTH 41 0
BBX 41 39 0 -6
BITMAP
600000000000
F00000000000
780000000000
3C0000000000
1E0000000000
0E0000000080
070FFFFFFF00
078FFFFFFF00
038FFFFFFE00
038FFFFFFE00
01C7FFFFFC00
01C7FFFFFC00
01C7FFFFFC00
00E7FFFFF800
00E7FFFFF800
00E7FFFFF000
00E3FFFFF000
0073FFFFE000
0073FFFFE000
0073FFFFC000
007000000000
007000000000
007000000000
007000000000
003800000000
003FFFFFF800
003FFFFFFC00
003FFFFFFC00
000000000000
000000000000
000000000000
003E0001F000
007F0003F800
007F8007F800
00FF8007F800
00FF8007F800
007F0007F800
007F0003F800
003E0001E000
ENDCHAR
STARTCHAR 003A
ENCODING 58
SWIDTH 984 0
DWIDTH 41 0
BBX 41 40 0 -6
BITMAP
000000FF8000
000003FFE000
000007FFF800
00000FFFFC00
00001FFFFC00
00001FFC1E00
00003FF81F00
00003FF80F00
00007FF80F00
00007FFC1F00
00007FFE3F80
00007FFFFF80
00007FFFFF80
00007FFFFF00
00003FFFFF00
00003FFFFF00
0000BFFFFE00
00019FFFFE00
00038FFFFC00
0007C7FFF800
000FE3FFF000
001FF1FFE000
003FF83F0000
007FFE000000
00FFFF000000
01FFF0000000
03FFF0000000
07FFF0000000
0FFF80000000
1FFF80000000
3FF000000000
7FF000000000
7FF000000000
FFF000000000
FFF000000000
FFF000000000
7F8000000000
7F8000000000
3F8000000000
0F0000000000
ENDCHAR
STARTCHAR 003B
ENCODING 59
SWIDTH 984 0
DWIDTH 41 0
BBX 41 41 0 -7
BITMAP
00001C000000
00001C000000
00001C000000
00001C000000
00001C000000
00001C000000
00001C000000
00001C000000
00001C000000
00001C000000
00001C000000
00001C000000
00001C000000
00001C000000
00001C000000
00001C000000
00001C000000
00001C000000
00001C000000
FFFFFFFFFF80
FFFFFFFFFF80
FFFFFFFFFF80
00001C000000
00001C000000
00001C000000
00001C000000
00001C000000
00001C000000
00001C000000
00001C000000
00001C000000
00001C000000
00001C000000
00001C000000
00001C000000
00001C000000
00001C000000
00001C000000
00001C000000
00001C000000
00001C000000
ENDCHAR
STARTCHAR 003C
ENCODING 60
SWIDTH 984 0
DWIDTH 41 0
BBX 41 33 0 -3
BITMAP
000008000000
00001C000000
00001E000000
00003E000000
00007F000000
00007F000000
0000F7800000
0000F7C00000
0001E3C00000
0003E3E00000
0003C1E00000
000780F00000
000780F80000
000F00780000
001F007C0000
001E003C0000
003C001E0000
003C001E0000
0078000F0000
00F8000F8000
00F000078000
01E00003C000
01E00003C000
03C00001E000
07C00001F000
07800000F000
0F0000007800
0F0000007800
1E0000003C00
3E0000003E00
3C0000001E00
780000000F00
F80000000F80
ENDCHAR
STARTCHAR 003D
ENCODING 61
SWIDTH 984 0
DWIDTH 41 0
BBX 41 41 0 -7
BITMAP
000008000000
0003FFE00000
000F80F80000
003C001E0000
00E000078000
01C00001C000
03000000E000
060000007000
0E7FFE003800
0C1FDFC01800
180F03E00C00
300F01F00C00
300F00F00600
200F00F80600
600F00F80300
600F00F80300
400F00F00300
C00F01F00100
C00F03E00180
C00F07C00180
C00FFF000180
C00F3E000180
C00F1F000180
C00F0F000100
400F07800300
600F07C00300
600F03C00300
600F01E00200
300F01F00600
300F00F00600
180F00780C00
1C1F803E1800
0C7FE03F1800
060000003000
030000006000
01C00001C000
00E000038000
0078000F0000
001F007C0000
0007FFF00000
00007F000000
ENDCHAR
STARTCHAR 003E
ENCODING 62
SWIDTH 984 0
DWIDTH 41 0
BBX 41 41 0 -7
BITMAP
00000C000000
0003FFE00000
000F81F80000
003C001E0000
00F000078000
01C00001C000
03800000E000
060000007000
0E00FFC63800
0C03C07E1800
1807001E0C00
301E000E0C00
303C000E0600
303C00060600
607800060300
607800020300
40F800000300
C0F000000100
C0F000000180
C1F000000180
C1F000000180
C1F000000180
C0F000000180
C0F000000100
40F800000300
60F800000300
607800000300
607C00030200
303C00060600
301E000C0600
180F80180C00
1C07E0F01800
0C01FFC01800
060000003000
030000006000
01C00001C000
00E000038000
0078000F0000
001F007C0000
0007FFF00000
00007F000000
ENDCHAR
STARTCHAR 003F
ENCODING 63
SWIDTH 984 0
DWIDTH 41 0
BBX 41 40 0 -7
BITMAP
0003FFE00000
000FFFF80000
003FFFFE0000
007FFFFF0000
01FF80FFC000
03FC001FE000
07F00007F000
0FE00003F800
0FC00001F800
1F800000FC00
1F0000007C00
3E0000003E00
3E0000003E00
7C0000001F00
7C0000001F00
780000000F00
780000000F00
F80000000F80
F80000000F80
F80000000F80
F80000000F80
F80000000F80
780000000F00
780000000F00
7C0000001F00
7C0000001F00
7C0000001E00
3E0000003E00
3F0000007E00
1F0000007C00
1F800000FC00
0FC00001F800
07E00003F000
03F8000FE000
01FE003FC000
00FFFFFF8000
007FFFFF0000
001FFFFC0000
0007FFF00000
00007F000000
ENDCHAR
STARTCHAR 0040
ENCODING 64
SWIDTH 984 0
DWIDTH 41 0
BBX 41 41 0 -7
BITMAP
000008000000
000008000000
000018000000
00001C000000
00003C000000
00003E000000
00007E000000
00007F000000
0000FF000000
0000FF800000
0001FF800000
0001FFC00000
0003FFC00000
0003FFE00000
0007FFE00000
0007FFF00000
000FFFF00000
000FFFF80000
001FFFFC0000
001FFFFC0000
003FFFFE0000
003FFFFE0000
007FFFFF0000
007FFFFF0000
00FFFFFF8000
00FFFFFF8000
01FFFFFFC000
01FFFFFFC000
03FFFFFFE000
03FFFFFFE000
07FFFFFFF000
07FFFFFFF000
0FFFFFFFF800
0FFFFFFFF800
1FFFFFFFFC00
1FFFFFFFFC00
3FFFFFFFFE00
3FFFFFFFFE00
7FFFFFFFFF00
7FFFFFFFFF00
FFFFFFFFFF80
ENDCHAR
STARTCHAR 0041
ENCODING 65
SWIDTH 984 0
DWIDTH 41 0
BBX 41 39 0 -6
BITMAP
800100000000
C00180000000
E001C0000000
F801E0000000
FC01F8000000
FE01FC000000
FF81FE000000
FFC1FF800000
FFE1FFC00000
FFF9FFE00000
FFFCFFF00000
FFFE7FFC0000
FFFF9FFE0000
FFFFCFFF0000
FFFFE7FFC000
FFFFF9FFE000
FFFFFCFFF000
FFFFFE7FFC00
FFFFFF9FFE00
FFFFFFCFFF80
FFFFFF9FFE00
FFFFFF3FFC00
FFFFFCFFF800
FFFFF9FFE000
FFFFF3FFC000
FFFFCFFF8000
FFFF9FFE0000
FFFF3FFC0000
FFFCFFF80000
FFF9FFE00000
FFF1FFC00000
FFC1FF800000
FF81FE000000
FF01FC000000
FC01F8000000
F801E0000000
F001C0000000
C00180000000
800100000000
ENDCHAR
STARTCHAR 0042
ENCODING 66
SWIDTH 984 0
DWIDTH 41 0
BBX 35 43 3 -8
BITMAP
8000003FE0
C000003FE0
F000003FE0
F800003FE0
FE00003FE0
FF80003FE0
FFC0003FE0
FFF0003FE0
FFFC003FE0
FFFE003FE0
FFFF803FE0
FFFFC03FE0
FFFFF03FE0
FFFFFC3FE0
FFFFFE3FE0
FFFFFFBFE0
FFFFFFFFE0
FFFFFFFFE0
FFFFFFFFE0
FFFFFFFFE0
FFFFFFFFE0
FFFFFFFFE0
FFFFFFFFE0
FFFFFFFFE0
FFFFFFFFE0
FFFFFFFFE0
FFFFFFFFE0
FFFFFFFFE0
FFFFFF3FE0
FFFFFC3FE0
FFFFF83FE0
FFFFE03FE0
FFFF803FE0
FFFF003FE0
FFFC003FE0
FFF0003FE0
FFE0003FE0
FF80003FE0
FF00003FE0
FC00003FE0
F000003FE0
E000003FE0
8000003FE0
ENDCHAR
STARTCHAR 0043
ENCODING 67
SWIDTH 984 0
DWIDTH 41 0
BBX 31 43 5 -8
BITMAP
FFF83FFE
FFF83FFE
FFF83FFE
FFF83FFE
FFF83FFE
FFF83FFE
FFF83FFE
FFF83FFE
FFF83FFE
FFF83FFE
FFF83FFE
FFF83FFE
FFF83FFE
FFF83FFE
FFF83FFE
FFF83FFE
FFF83FFE
FFF83FFE
FFF83FFE
FFF83FFE
FFF83FFE
FFF83FFE
FFF83FFE
FFF83FFE
FFF83FFE
FFF83FFE
FFF83FFE
FFF83FFE
FFF83FFE
FFF83FFE
FFF83FFE
FFF83FFE
FFF83FFE
FFF83FFE
FFF83FFE
FFF83FFE
FFF83FFE
FFF83FFE
FFF83FFE
FFF83FFE
FFF83FFE
FFF83FFE
FFF83FFE
ENDCHAR
STARTCHAR 0044
ENCODING 68
SWIDTH 984 0
DWIDTH 41 0
BBX 35 43 3 -8
BITMAP
8000000000
C000000000
F000000000
F800000000
FE00000000
FF80000000
FFC0000000
FFF0000000
FFF8000000
FFFE000000
FFFF800000
FFFFC00000
FFFFF00000
FFFFFC0000
FFFFFE0000
FFFFFF8000
FFFFFFE000
FFFFFFF000
FFFFFFFC00
FFFFFFFE00
FFFFFFFF80
FFFFFFFFE0
FFFFFFFFC0
FFFFFFFF00
FFFFFFFE00
FFFFFFF800
FFFFFFE000
FFFFFFC000
FFFFFF0000
FFFFFC0000
FFFFF80000
FFFFE00000
FFFF800000
FFFF000000
FFFC000000
FFF0000000
FFE0000000
FF80000000
FF00000000
FC00000000
F000000000
E000000000
8000000000
ENDCHAR
STARTCHAR 0045
ENCODING 69
SWIDTH 984 0
DWIDTH 41 0
BBX 41 40 0 -7
BITMAP
0003FFE00000
000FFFF80000
003FFFFE0000
00FFFFFF8000
01FFFFFFC000
03FFFFFFE000
07FFFFFFF000
0FFFFFFFF800
0FFFFFFFF800
1FFFFFFFFC00
1FFFFFFFFC00
3FFF80FFFE00
3FFE003FFE00
7FFC001FFF00
7FF8000FFF00
7FF8000FFF00
7FF00007FF00
FFF00007FF80
FFF00007FF80
FFF00007FF80
FFF00007FF80
FFF00007FF80
7FF00007FF00
7FF00007FF00
7FF8000FFF00
7FFC001FFF00
3FFE003FFE00
3FFF007FFE00
3FFFF7FFFE00
1FFFFFFFFC00
0FFFFFFFF800
0FFFFFFFF800
07FFFFFFF000
03FFFFFFE000
01FFFFFFC000
00FFFFFF8000
007FFFFF0000
001FFFFC0000
0007FFF00000
00007F000000
ENDCHAR
STARTCHAR 0046
ENCODING 70
SWIDTH 984 0
DWIDTH 41 0
BBX 40 40 1 -7
BITMAP
FFFFFFFFFF
FFFFFFFFFF
FFFFFFFFFF
FFFFFFFFFF
FFFFFFFFFF
FFFFFFFFFF
FFFFFFFFFF
FFFFFFFFFF
FFFFFFFFFF
FFFFFFFFFF
FFFFFFFFFF
FFFFFFFFFF
FFFFFFFFFF
FFFFFFFFFF
FFFFFFFFFF
FFFFFFFFFF
FFFFFFFFFF
FFFFFFFFFF
FFFFFFFFFF
FFFFFFFFFF
FFFFFFFFFF
FFFFFFFFFF
FFFFFFFFFF
FFFFFFFFFF
FFFFFFFFFF
FFFFFFFFFF
FFFFFFFFFF
FFFFFFFFFF
FFFFFFFFFF
FFFFFFFFFF
FFFFFFFFFF
FFFFFFFFFF
FFFFFFFFFF
FFFFFFFFFF
FFFFFFFFFF
FFFFFFFFFF
FFFFFFFFFF
FFFFFFFFFF
FFFFFFFFFF
FFFFFFFFFF
ENDCHAR
STARTCHAR 0047
ENCODING 71
SWIDTH 984 0
DWIDTH 41 0
BBX 35 43 3 -8
BITMAP
FF80000020
FF80000060
FF800001E0
FF800003E0
FF80000FE0
FF80003FE0
FF80007FE0
FF8001FFE0
FF8003FFE0
FF800FFFE0
FF803FFFE0
FF807FFFE0
FF81FFFFE0
FF87FFFFE0
FF8FFFFFE0
FFBFFFFFE0
FFFFFFFFE0
FFFFFFFFE0
FFFFFFFFE0
FFFFFFFFE0
FFFFFFFFE0
FFFFFFFFE0
FFFFFFFFE0
FFFFFFFFE0
FFFFFFFFE0
FFFFFFFFE0
FFFFFFFFE0
FFFFFFFFE0
FF9FFFFFE0
FF87FFFFE0
FF83FFFFE0
FF80FFFFE0
FF803FFFE0
FF801FFFE0
FF8007FFE0
FF8003FFE0
FF8000FFE0
FF80003FE0
FF80001FE0
FF800007E0
FF800001E0
FF800000E0
FF80000020
ENDCHAR
STARTCHAR 0048
ENCODING 72
SWIDTH 984 0
DWIDTH 41 0
BBX 41 39 0 -6
BITMAP
000000400080
000000C00180
000001C00380
000003C00F80
00000FC01F80
00001FC03F80
00003FC0FF80
0000FFC1FF80
0001FFC3FF80
0003FFCFFF80
000FFF9FFF80
001FFF3FFF80
003FFCFFFF80
007FF9FFFF80
01FFF3FFFF80
03FFCFFFFF80
07FF9FFFFF80
1FFF3FFFFF80
3FFCFFFFFF80
FFF9FFFFFF80
3FFCFFFFFF80
1FFE7FFFFF80
0FFF9FFFFF80
03FFCFFFFF80
01FFE7FFFF80
00FFF9FFFF80
007FFCFFFF80
001FFE7FFF80
000FFF9FFF80
0007FFCFFF80
0001FFC7FF80
0000FFC1FF80
00007FC0FF80
00001FC07F80
00000FC01F80
000007C00F80
000001C00780
000000C00180
000000400080
ENDCHAR
STARTCHAR 0049
ENCODING 73
SWIDTH 984 0
DWIDTH 41 0
BBX 41 40 0 -7
BITMAP
F08000000000
F0E000000000
F0F800000000
F0F800000000
F0F800000000
F0F840000000
F0F860000000
F0F878000000
F0F87C000000
F0F87F000000
F0F87FC00000
F0F87FE00000
F0F87FF80000
F0F87FFE0000
F0F87FFF0000
F0F87FFFC000
F0F87FFFE000
F0F87FFFF800
F0F87FFFFE00
F0F87FFFFF80
F0F87FFFFE00
F0F87FFFFC00
F0F87FFFF000
F0F87FFFC000
F0F87FFF8000
F0F87FFE0000
F0F87FF80000
F0F87FF00000
F0F87FC00000
F0F87F800000
F0F87E000000
F0F878000000
F0F870000000
F0F840000000
F0F800000000
F0F800000000
F0F800000000
F0E000000000
F0C000000000
F10000000000
ENDCHAR
STARTCHAR 004A
ENCODING 74
SWIDTH 984 0
DWIDTH 41 0
BBX 41 39 0 -6
BITMAP
000008000000
00001C000000
00001C000000
00003E000000
00007F000000
0000FF800000
0000FFC00000
0001FFC00000
0003FFE00000
0007FFF00000
000FFFF80000
000FFFF80000
001FFFFC0000
003FFFFE0000
007FFFFF0000
007FFFFF0000
00FFFFFF8000
01FFFFFFC000
03FFFFFFE000
03FFFFFFE000
07FFFFFFF000
0FFFFFFFF800
1FFFFFFFFC00
1FFFFFFFFC00
3FFFFFFFFE00
7FFFFFFFFF00
FFFFFFFFFF80
000000000000
000000000000
000000000000
FFFFFFFFFF80
FFFFFFFFFF80
FFFFFFFFFF80
FFFFFFFFFF80
FFFFFFFFFF80
FFFFFFFFFF80
FFFFFFFFFF80
FFFFFFFFFF80
FFFFFFFFFF80
ENDCHAR
STARTCHAR 004B
ENCODING 75
SWIDTH 984 0
DWIDTH 41 0
BBX 41 41 0 -7
BITMAP
000000003000
00000000F000
00000001F000
00000001F000
00000003F000
00000007F000
00000007E000
0000000FC000
0000000FC000
0000001F8000
0000001F8000
0000003F0000
0000007F0000
1FFFFFFE0000
3FFFFFFC0000
3FFFFFFC0000
7FFFFFFE0000
FFFFFFFF0000
07FFFFFF0000
003FFFFF8000
0001FFFF8000
00000FFFC000
00001FFFC000
00001FFFE000
00003F7FE000
00003F3FF000
00007E1FF800
00007C0FF800
0000FC07FC00
0000F803FC00
0001F001FE00
007FF001FE00
007FE000FF00
00FFE0007F80
01FFF0003F00
0007F0001E00
0001F0000E00
0000F8000400
000070000400
000030000000
000020000000
ENDCHAR
STARTCHAR 004C
ENCODING 76
SWIDTH 984 0
DWIDTH 41 0
BBX 35 43 3 -8
BITMAP
0000001000
0000001000
0000001800
0000003800
0000003800
003FFE7C00
00FFFFFC00
03FFFFFE00
07FFFFFE00
0FFFFFFF00
1FE1FFFF00
3E001FFF00
300007FF80
40000FFF80
00000FFFC0
00001FFFC0
00003FFFC0
00003FFFA0
00007F8000
0000800000
0000000000
0000000000
0000000000
0000200000
0007C00000
07FF800000
FFFF800000
7FFF000000
7FFF000000
3FFE000040
3FFC0000C0
3FFE000780
1FFFC03F00
1FFFFFFE00
0FFFFFFC00
0FFFFFF800
0FFFFFF000
07FFFFC000
07807C0000
0380000000
0300000000
0100000000
0100000000
ENDCHAR
STARTCHAR 004D
ENCODING 77
SWIDTH 984 0
DWIDTH 41 0
BBX 41 35 0 -4
BITMAP
0000E0000000
001FFF000000
007FFFC00000
00FFFFE00000
03FFFFF80000
07FFFFFC0000
0FF803FE0000
0FE000FE0000
1FC0007F0000
3F80003F8000
3F00001F8000
7E00000FC000
7E00000FC000
7C000007C000
7C0001FFFF80
FC0000FFFF00
F800007FFE00
F800003FFC00
F800001FF800
FC00001FF000
7C00000FE000
7C000007E000
7C000003C000
7E0000018000
3F0000010000
3F0000000000
1F8000000000
1FE000800000
0FF001800000
07FF1FC00000
03FFFFC00000
01FFFFE00000
007FFFC00000
001FFF000000
0001F0000000
ENDCHAR
STARTCHAR 004E
ENCODING 78
SWIDTH 984 0
DWIDTH 41 0
BBX 41 29 0 -1
BITMAP
000000003800
000000007C00
00000000FE00
00000001FF00
00000003FF80
00000007FF00
0000000FFF00
0000001FFE00
0400003FFC00
1E00007FF800
3F0000FFF000
7F8001FFE000
FFC003FFC000
FFE007FF8000
7FF00FFF0000
3FF81FFE0000
1FFC3FFC0000
0FFE7FF80000
07FFFFF00000
03FFFFE00000
01FFFFC00000
00FFFF800000
007FFF000000
003FFE000000
001FFC000000
000FF8000000
0007F0000000
0003E0000000
0001C0000000
ENDCHAR
STARTCHAR 004F
ENCODING 79
SWIDTH 984 0
DWIDTH 41 0
BBX 41 40 0 -7
BITMAP
3FF000000000
7FFF00000000
FFFFC0000000
FFFFF8000000
7FFFFC000000
7FFFFF000000
3FFFFFC00000
007FFFE00000
0007FFF00000
0000FFF80000
00003FFC0000
1C001FFE0000
7FF007FF0000
7FFC03FF8000
FFFF01FFC000
FFFFC07FC000
7FFFE03FE000
7FFFF03FF000
1FFFFC1FF000
007FFC0FF800
001FFE07F800
0007FF07FC00
0001FF83FC00
0000FF83FC00
00007FC1FE00
00003FC1FE00
07803FE1FE00
1FE01FE0FF00
3FF00FF0FF00
7FF80FF0FF00
7FF80FF07F00
7FFC07F07F00
FFFC07F87F00
FFFC07F87F00
7FFC07F87F80
7FF807F87F80
7FF807F87F80
3FF003F87F00
1FE003F03F00
078000C00C00
ENDCHAR
STARTCHAR 0050
ENCODING 80
SWIDTH 984 0
DWIDTH 41 0
BBX 38 43 1 -8
BITMAP
00007C0000
0007FF8000
001FFFE000
003FFFF800
007FFFFC00
00FFFFFE00
01FFFFFF00
03FE00FF80
03FC007F80
07F8003FC0
07F0001FC0
07E0000FC0
0FE0000FE0
0FC0000FE0
0FC00007E0
0FC00007E0
0FC00007E0
0FC00007E0
0FC00007E0
FFFFFFFFFC
FFFFFFFFFC
FFFFFFFFFC
FFFFFFFFFC
FFFFFFFFFC
FFFFFFFFFC
FFFFC7FFFC
FFFF83FFFC
FFFF83FFFC
FFFF83FFFC
FFFF83FFFC
FFFFC7FFFC
FFFFC7FFFC
FFFFC7FFFC
FFFFC7FFFC
FFFFC7FFFC
FFFF87FFFC
FFFF87FFFC
FFFF83FFFC
FFFFFFFFFC
FFFFFFFFFC
FFFFFFFFFC
FFFFFFFFFC
FFFFFFFFFC
ENDCHAR
STARTCHAR 0051
ENCODING 81
SWIDTH 984 0
DWIDTH 41 0
BBX 41 40 0 -7
BITMAP
00FFFFFF0000
00FFFFFF0000
00FFFFFF0000
00FFFFFF0000
00FFFFFF0000
00FFFFFF0000
00FFFFFF0000
00FFFFFF0000
00FFFFFF0000
00FFFFFF0000
00FFFFFF0000
00FFFFFF0000
00FFFFFF0000
00FFFFFF0000
00000C000000
00000C000000
00000C000000
00000C000000
00000C000000
00000C000000
00FFFFFF8000
00FFFFFF8000
00C000008000
00C000008000
00C000008000
00C000008000
FFFFC1FFFF80
FFFFC1FFFF80
FFFFC1FFFF80
FFFFC1FFFF80
FFFFC1FFFF80
FFFFC1FFFF80
FFFFC1FFFF80
FFFFC1FFFF80
FFFFC1FFFF80
FFFFC1FFFF80
FFFFC1FFFF80
FFFFC1FFFF80
FFFFC1FFFF80
FFFFC1FFFF80
ENDCHAR
STARTCHAR 0052
ENCODING 82
SWIDTH 984 0
DWIDTH 41 0
BBX 41 24 0 1
BITMAP
0001C0000000
0000E0000000
0000F8000000
00007C000000
01FFFE1FC000
07FFFF9FF000
0FFFFF9FF800
1FFFFF1FFC00
3FFFFE1FFE00
7F00FC007F00
7E00F8003F00
7C00E0001F00
FC01C0001F80
F80000000F80
FC0000000F80
7C0000001F80
7C0000001F00
7E0000003F00
3FC00001FF00
3FFFFFFFFE00
1FFFFFFFFC00
0FFFFFFFF800
03FFFFFFF000
00FFFFFF8000
ENDCHAR
STARTCHAR 0053
ENCODING 83
SWIDTH 984 0
DWIDTH 41 0
BBX 41 33 0 -3
BITMAP
0000003C0000
0000007E0000
000000FF0000
000001FF8000
000003FFC000
000007FFE000
FFFFCFFFF000
FFFFDFFFF800
FFFFBFFFFC00
FFFF7FFFFE00
FFFEFFFFFF00
FFFDFF7FFF00
FFFDFC7E7F00
FE01F07E1F00
FC7ECF7EE200
FCFF3F7EFD80
FDFFFF7EFF80
F9FFFF7EFF00
F9FFFF7EFF00
FBFFFF7EFF00
F3FFFF7EFE00
F3FFFF7EFE00
F7FFFF7EFE00
F7FFFF7EFE00
E7FFFF7EFC00
E7FFFF7EFC00
EFFFFF3CFC00
CFFFFF81F800
CFFFFFFFF800
DFFFFFFFF800
5FFFFFFFF800
1FFFFFFFF000
1FFFFFFFF000
ENDCHAR
STARTCHAR 0054
ENCODING 84
SWIDTH 984 0
DWIDTH 41 0
BBX 41 41 0 -7
BITMAP
000018000000
0003FFE00000
000FFFF80000
003FFFFE0000
00FFFFFF0000
01FFFFFFC000
03FFFFFFE000
07FE003FF000
0FF8000FF800
0FF00007F800
1FF80003FC00
3FFC0001FC00
3FFE0000FE00
3F3F00007E00
7F1F80007F00
7E0FC0003F00
7E07E0003F00
7E03F0003F00
FC01F8003F00
FC00FC003F80
FC007E001F80
FC003F001F80
FC001F803F00
FE000FC03F00
7E0007E03F00
7E0003F03F00
7F0001F87F00
7F0000FC7E00
3F80007EFE00
3F80003FFC00
1FC0001FFC00
1FE0000FF800
0FF8000FF800
07FE003FF000
03FFC1FFE000
01FFFFFFC000
00FFFFFF8000
007FFFFE0000
001FFFFC0000
0007FFE00000
00003E000000
ENDCHAR
STARTCHAR 0055
ENCODING 85
SWIDTH 984 0
DWIDTH 41 0
BBX 41 35 0 -4
BITMAP
00000C000000
00001C000000
00003C000000
00007C000000
0000FC000000
0001FC000000
0003FC000000
0007FC000000
000FFC000000
001FFC000000
7FFFFC000000
FFFFFC000000
FFFFFC000000
FFFFFC000000
FFFFFC000000
FFFFFC3FFF80
FFFFFC3FFF80
FFFFFC3FFF80
FFFFFC3FFF80
FFFFFC3FFF80
FFFFFC000000
FFFFFC000000
FFFFFC000000
FFFFFC000000
7FFFFC000000
001FFC000000
000FFC000000
0007FC000000
0003FC000000
0001FC000000
0000FC000000
00007C000000
00003C000000
00001C000000
00000C000000
ENDCHAR
STARTCHAR 0056
ENCODING 86
SWIDTH 984 0
DWIDTH 41 0
BBX 41 37 0 -5
BITMAP
000004000000
00000E000000
00001E000000
00003E000000
00007E000000
0000FE000000
0000FE000000
0001FE000000
0003FE000000
0007FE000000
000FFE000000
7FFFFE01F000
FFFFFE01F000
FFFFFE01F000
FFFFFE01F000
FFFFFE01F000
FFFFFE3FFF80
FFFFFE3FFF80
FFFFFE3FFF80
FFFFFE3FFF80
FFFFFE3FFF80
FFFFFE01F000
FFFFFE01F000
FFFFFE01F000
FFFFFE01F000
7FFFFE01F000
001FFE000000
000FFE000000
0007FE000000
0003FE000000
0001FE000000
0000FE000000
00007E000000
00003E000000
00001E000000
00000E000000
000006000000
ENDCHAR
STARTCHAR 0057
ENCODING 87
SWIDTH 984 0
DWIDTH 41 0
BBX 41 39 0 -6
BITMAP
00F0000FC000
07FE003FF800
1FFF007FFC00
3FFF81FFFE00
3FFFC1FFFE00
7FFFE3FFFF00
7FFFE7FFFF00
FFFFFFFFFF00
FFFFFFFFFF80
FFFFFFFFFF80
7FFFFFFFFF80
7FFFFFFFFF80
7FFFFFFFFF00
7FFFFFFFFF00
3FFFFFFFFE00
1FFFFFFFFE00
1FFFFFFFFC00
0FFFFFFFF800
07FFFFFFF800
03FFFFFFF000
01FFFFFFE000
00FFFFFFC000
007FFFFF8000
003FFFFF0000
001FFFFE0000
000FFFFC0000
0007FFF80000
0003FFF00000
0001FFE00000
0000FFC00000
00007F800000
00003F000000
00003F000000
00001E000000
00001C000000
00000C000000
000008000000
000008000000
000008000000
ENDCHAR
STARTCHAR 0058
ENCODING 88
SWIDTH 984 0
DWIDTH 41 0
BBX 33 43 4 -8
BITMAP
00E0000000
01F0000000
01F0000000
01F0000000
01F0000000
01F0000000
01F0000000
01F0000000
01F0000000
01F0000000
01F0000000
01F0000000
01F1C00000
01F3E00000
01F3E18000
01F3E3C000
01F3E3C780
01F3E3C780
F1F3E3C780
F1F3E7CF80
F1FFFFFF80
F1FFFFFF80
F1FFFFFF80
F1FFFFFF80
F1FFFFFF80
F1FFFFFF80
F1FFFFFF80
FBFFFFFF80
FFFFFFFF80
FFFFFFFF80
FFFFFFFF80
FFFFFFFF80
7FFFFFFF80
3FFFFFFF80
3FFFFFFF80
1FFFFFFF80
0FFFFFFF80
0FFFFFFF80
07FFFFFF80
07FFFFFF80
03FFFFFF80
01FFFFFF80
00FFFFFF00
ENDCHAR
STARTCHAR 0059
ENCODING 89
SWIDTH 984 0
DWIDTH 41 0
BBX 31 43 5 -8
BITMAP
00038000
00078000
0007C000
0007C000
00C7C600
01E7CF00
01E7CF00
01E7CF00
01E7CF00
01E7CF1C
01E7CF1E
01E7CF1E
01E7CF1E
01E7CF1E
01E7CF1E
01E7CF1E
01E7CF1E
01E7CF1E
01E7CF1E
01E7CF1E
61E7CF1E
F1E7CF3E
F1FFFFFE
F1FFFFFE
F1FFFFFE
F1FFFFFE
F1FFFFFE
F1FFFFFE
F9FFFFFE
FFFFFFFE
FFFFFFFE
FFFFFFFE
7FFFFFFE
7FFFFFFE
3FFFFFFE
1FFFFFFE
1FFFFFFE
0FFFFFFE
07FFFFFE
07FFFFFE
03FFFFFC
01FFFFFC
00FFFFF8
ENDCHAR
STARTCHAR 005A
ENCODING 90
SWIDTH 984 0
DWIDTH 41 0
BBX 41 41 0 -7
BITMAP
000000006000
000000007000
000003007000
000007007800
00000F003800
00001F003C00
00003F001C00
00007F0E1E00
0000FF0E1E00
0001FF0F1E00
0003FF070E00
0003FF070F00
0007FF078F00
7FFFFF078F00
FFFFFF078F00
FFFFFF078F00
FFFFFF038F80
FFFFFF038780
FFFFFF03C780
FFFFFF03C780
FFFFFF03C780
FFFFFF03C780
FFFFFF03C780
FFFFFF038780
FFFFFF038F80
FFFFFF078F00
FFFFFF078F00
FFFFFF078F00
FFFFFF078F00
000FFF070F00
0007FF070E00
0003FF0F1E00
0001FF0E1E00
0000FF0E1E00
0000FF0C1C00
00007F003C00
00003F003800
00001F007800
00000F007000
000007007000
000003006000
ENDCHAR
STARTCHAR 005B
ENCODING 91
SWIDTH 984 0
DWIDTH 41 0
BBX 39 39 1 -6
BITMAP
8000000000
E000000000
F800000000
FE00000000
FF80000000
FFE0000000
FFF8000000
FFFE000000
FFFF800000
FFFFE00000
FFFFF80000
FFFFFE0000
FFFFFF8000
FFFFFFE000
FFFFFFF800
FFFFFFFE00
FFFFFFFF80
FFFFFFFFE0
FFFFFFFFF8
FFFFFFFFFE
FFFFFFFFFC
FFFFFFFFF0
FFFFFFFFC0
FFFFFFFF00
FFFFFFFC00
FFFFFFF000
FFFFFFC000
FFFFFF0000
FFFFFC0000
FFFFF00000
FFFFC00000
FFFF000000
FFFC000000
FFF0000000
FFC0000000
FF00000000
FC00000000
F000000000
C000000000
ENDCHAR
STARTCHAR 005C
ENCODING 92
SWIDTH 984 0
DWIDTH 41 0
BBX 41 41 0 -7
BITMAP
FFFFFFFFFF80
7FFFFFFFFF00
7FFFFFFFFF00
3FFFFFFFFE00
3FFFFFFFFE00
1FFFFFFFFC00
1FFFFFFFFC00
0FFFFFFFF800
0FFFFFFFF800
07FFFFFFF000
07FFFFFFF000
03FFFFFFE000
03FFFFFFE000
01FFFFFFC000
01FFFFFFC000
00FFFFFF8000
00FFFFFF8000
007FFFFF0000
007FFFFF0000
003FFFFE0000
003FFFFE0000
001FFFFC0000
001FFFFC0000
000FFFF80000
000FFFF80000
0007FFF00000
0007FFF00000
0003FFE00000
0003FFE00000
0001FFC00000
0001FFC00000
0000FF800000
0000FF800000
00007F000000
00007F000000
00003E000000
00003E000000
00001C000000
00001C000000
000008000000
000008000000
ENDCHAR
STARTCHAR 005D
ENCODING 93
SWIDTH 984 0
DWIDTH 41 0
BBX 41 40 0 -7
BITMAP
000000000180
000000000780
000000001F80
000000007F80
00000001FF80
00000007FF80
0000001FFF80
0000007FFF80
000001FFFF80
000007FFFF80
00001FFFFF80
00007FFFFF80
0001FFFFFF80
0007FFFFFF80
001FFFFFFF80
007FFFFFFF80
01FFFFFFFF80
07FFFFFFFF80
1FFFFFFFFF80
FFFFFFFFFF80
3FFFFFFFFF80
0FFFFFFFFF80
03FFFFFFFF80
00FFFFFFFF80
003FFFFFFF80
000FFFFFFF80
0003FFFFFF80
0000FFFFFF80
00003FFFFF80
00000FFFFF80
000003FFFF80
000000FFFF80
0000003FFF80
0000000FFF80
00000003FF80
00000000FF80
000000003F80
000000000F80
000000000380
000000000080
ENDCHAR
STARTCHAR 005E
ENCODING 94
SWIDTH 984 0
DWIDTH 41 0
BBX 41 14 0 6
BITMAP
030000006000
020000002000
060000003000
0C0000001800
1C0000001C00
3FFFFFFFFE00
FFFFFFFFFF80
7FFFFFFFFF00
3FFFFFFFFE00
1C0000001C00
0C0000001800
060000003000
020000002000
010000004000
ENDCHAR
STARTCHAR 005F
ENCODING 95
SWIDTH 984 0
DWIDTH 41 0
BBX 15 43 13 -8
BITMAP
0100
0380
07C0
0FE0
1FF0
3FF8
739C
8382
0380
0380
0380
0380
0380
0380
0380
0380
0380
0380
0380
0380
0380
0380
0380
0380
0380
0380
0380
0380
0380
0380
0380
0380
0380
0380
0380
0382
E38C
3FF8
1FF0
0FE0
07C0
0380
0100
ENDCHAR
STARTCHAR 0060
ENCODING 96
SWIDTH 984 0
DWIDTH 41 0
BBX 15 43 13 -8
BITMAP
03C0
03C0
03C0
03C0
03C0
03C0
03C0
03C0
03C0
03C0
03C0
03C0
03C0
03C0
03C0
03C0
03C0
03C0
03C0
03C0
03C0
03C0
03C0
03C0
03C0
03C0
03C0
03C0
03C0
03C0
03C0
03C0
03C0
03C0
03C0
83C0
63CE
3FF8
1FF0
0FE0
07C0
0380
0100
ENDCHAR
STARTCHAR 0061
ENCODING 97
SWIDTH 984 0
DWIDTH 41 0
BBX 41 23 0 2
BITMAP
000000002000
000000002000
0000E0006000
000FFF006000
003FFFC0F000
007FFFF1F000
00FFFFFDF000
01FFFFFFF800
03FFFFFFF800
07FFFFFFF800
0FFFFFFFF800
0FF07FFFFC00
1F000FFFFC00
3C0003FFFC00
380001FFFC00
600001FFFE00
400003FFFE00
800007FFFE00
000007FFFF00
00000FFFFF00
00001FFFFF00
00003FFFFF00
00007FFFFF80
ENDCHAR
STARTCHAR 0062
ENCODING 98
SWIDTH 984 0
DWIDTH 41 0
BBX 40 23 1 2
BITMAP
0400000000
0400000000
0600000000
06007FE000
0701FFF800
0F87FFFE00
0F9FFFFF00
0FFFFFFF80
0FFFFFFFC0
1FFFFFFFE0
1FFFFFFFE0
1FFFFF1FF0
3FFFF001F8
3FFFC00078
3FFF80001C
3FFF80000C
7FFFC00002
7FFFC00002
7FFFE00001
7FFFF00000
FFFFF80000
FFFFFC0000
FFFFFE0000
ENDCHAR
STARTCHAR 0063
ENCODING 99
SWIDTH 984 0
DWIDTH 41 0
BBX 40 43 0 -8
BITMAP
00007F0000
0000FF8000
0000FFC000
0000FFC000
0000FFC000
0000FFC000
0000FFC000
0000FFC000
0000FFC000
0000FFC000
0000FFC000
0000FFC000
0000FFC000
0000FFC000
0000FFC000
0000FFC000
0000FFC000
0000FFC000
0000FFC000
3800FFC00E
7E00FFC07F
7F80FFC1FF
FFE0FFC7FF
FFF8FFDFFF
7FFFFFFFFF
7FFFFFFFFE
3FFFFFFFFC
1FFFFFFFF8
0FFFFFFFF0
07FFFFFFE0
03FFFFFFC0
01FFFFFF80
00FFFFFF00
007FFFFE00
003FFFFC00
001FFFF800
000FFFF000
0007FFE000
0003FFC000
0001FF8000
0000FF0000
00007E0000
00001C0000
ENDCHAR
STARTCHAR 0064
ENCODING 100
SWIDTH 984 0
DWIDTH 41 0
BBX 39 40 1 -7
BITMAP
00000001C0
00000007E0
0000000FF0
0000001FF8
3C00003FFC
7E00007FFE
FE0000FFFE
FF0001FFFE
FF0003FFFE
FF8007FFFC
FF800FFFF8
FF801FFFF0
FFC03FFFE0
FFC07FFFC0
FFC0FFFF80
FFE1FFFF00
FFE3FFFE00
FFF7FFFC00
FFFFFFF800
FFFFFFF000
FFFFFFE000
FFFFFFC000
FFFFFF8000
FFFFFF0000
FFFFFE0000
FFFFFC0000
FFFFF80000
FFFFF80000
FFFFFE0000
FFFFFFC000
FFFFFFF800
FFFFFFFF00
FFFFFFFFC0
FFFFFFFFE0
FFFFFFFFF0
FFFFFFFFF0
FFFFFFFFF0
FFFFFFFFE0
7FFFFFFFC0
3FFFFFFF80
ENDCHAR
STARTCHAR 0065
ENCODING 101
SWIDTH 984 0
DWIDTH 41 0
BBX 39 40 1 -7
BITMAP
0F00000000
1F80000000
3FC0000000
7FE0000000
FFF0000078
FFF80000FC
FFFC0001FE
FFFE0001FE
FFFF0001FE
7FFF8003FE
3FFFC003FE
1FFFE007FE
0FFFF007FE
07FFF807FE
03FFFC0FFE
01FFFE0FFE
00FFFF0FFE
007FFF9FFE
003FFFDFFE
001FFFFFFE
000FFFFFFE
0007FFFFFE
0003FFFFFE
0001FFFFFE
0000FFFFFE
00007FFFFE
00003FFFFE
00003FFFFE
0000FFFFFE
0007FFFFFE
003FFFFFFE
01FFFFFFFE
07FFFFFFFE
0FFFFFFFFE
1FFFFFFFFE
1FFFFFFFFE
1FFFFFFFFE
0FFFFFFFFE
07FFFFFFFC
03FFFFFFF8
ENDCHAR
STARTCHAR 0066
ENCODING 102
SWIDTH 984 0
DWIDTH 41 0
BBX 41 37 0 -5
BITMAP
0000FC000000
0001FC000000
0003FC000000
0007FC000000
000FFC000000
001FF8000000
003FF8000000
007FF8000000
00FFF0000000
01FFF0000000
03FFE0000000
07FFE0000000
0FFFC0000000
1FFFC0000000
3FFFFFFFFF00
7FFFFFFFFF00
7FFFFFFFFF80
FFFFFFFFFF80
FFFFFFFFFF80
7FFFFFFFFF80
7FFFFFFFFF80
3FFFFFFFFF00
1FFFFFFFFF00
0FFFC0000000
07FFC0000000
03FFE0000000
01FFE0000000
00FFF0000000
007FF0000000
003FF8000000
001FF8000000
000FFC000000
0007FC000000
0003FC000000
0001FC000000
0000FC000000
000078000000
ENDCHAR
STARTCHAR 0067
ENCODING 103
SWIDTH 984 0
DWIDTH 41 0
BBX 41 38 0 -6
BITMAP
00000F000000
00001F800000
00001FC00000
00001FE00000
00001FF00000
00001FF80000
00000FFC0000
00000FFE0000
000007FF0000
000007FF8000
000003FFC000
000003FFE000
000001FFF000
000001FFF800
1FFFFFFFFC00
7FFFFFFFFE00
FFFFFFFFFF00
FFFFFFFFFF80
FFFFFFFFFF80
FFFFFFFFFF80
FFFFFFFFFF00
FFFFFFFFFF00
7FFFFFFFFE00
1FFFFFFFFC00
000001FFF800
000003FFF000
000003FFE000
000007FFC000
000007FF8000
00000FFF0000
00000FFE0000
00001FFC0000
00001FF80000
00001FF00000
00001FE00000
00001FC00000
00001F800000
000004000000
ENDCHAR
STARTCHAR 0068
ENCODING 104
SWIDTH 984 0
DWIDTH 41 0
BBX 40 43 1 -8
BITMAP
0000380000
0000FE0000
0001FF0000
0003FF8000
0007FFC000
000FFFE000
001FFFF000
003FFFF800
007FFFFC00
00FFFFFE00
01FFFFFF00
03FFFFFF80
07FFFFFFC0
0FFFFFFFE0
1FFFFFFFF0
3FFFFFFFF8
7FFFFFFFFC
FFFFFFFFFE
FFFFFFFFFE
FFF9FFBFFE
FFE1FF8FFF
FF81FF83FE
FC01FF80FE
7001FF801C
0001FF8000
0001FF8000
0001FF8000
0001FF8000
0001FF8000
0001FF8000
0001FF8000
0001FF8000
0001FF8000
0001FF8000
0001FF8000
0001FF8000
0001FF8000
0001FF8000
0001FF8000
0001FF8000
0001FF8000
0001FF8000
0000FF0000
ENDCHAR
STARTCHAR 0069
ENCODING 105
SWIDTH 984 0
DWIDTH 41 0
BBX 41 41 0 -7
BITMAP
1FFFFFFFC000
3FFFFFFFE000
7FFFFFFFF000
7FFFFFFFF800
FFFFFFFFF800
FFFFFFFFF800
FFFFFFFFF800
FFFFFFFFF000
FFFFFFFFC000
FFFFFFFF0000
FFFFFFF80000
FFFFFFC00000
FFFFFE000000
FFFFF8000000
FFFFFC000000
FFFFFE000000
FFFFFF000000
FFFFFF800000
FFFFFFC00000
FFFFFFE00000
FFFFFFF00000
FFFFFFF80000
FFFBFFFC0000
FFF1FFFE0000
FFF0FFFF0000
FFF07FFF8000
FFE03FFFC000
FFE01FFFE000
FFE00FFFF000
FFC007FFF800
FFC003FFFC00
FFC001FFFE00
FF8000FFFF00
FF80007FFF80
7F00003FFF80
3F00001FFF00
1E00000FFF00
00000007FE00
00000003FC00
00000001F800
00000000F000
ENDCHAR
STARTCHAR 006A
ENCODING 106
SWIDTH 984 0
DWIDTH 41 0
BBX 41 41 0 -7
BITMAP
01FFFFFFFC00
03FFFFFFFE00
07FFFFFFFF00
0FFFFFFFFF00
0FFFFFFFFF80
0FFFFFFFFF80
0FFFFFFFFF80
07FFFFFFFF80
01FFFFFFFF80
007FFFFFFF80
000FFFFFFF80
0001FFFFFF80
00003FFFFF80
00000FFFFF80
00001FFFFF80
00003FFFFF80
00007FFFFF80
0000FFFFFF80
0001FFFFFF80
0003FFFFFF80
0007FFFFFF80
000FFFFFFF80
001FFFEFFF80
003FFFC7FF80
007FFF87FF80
00FFFF07FF80
01FFFE03FF80
03FFFC03FF80
07FFF803FF80
0FFFF001FF80
1FFFE001FF80
3FFFC001FF80
7FFF8000FF80
FFFF0000FF00
FFFE00007F00
7FFC00007E00
7FF800003C00
3FF000000000
1FE000000000
0FC000000000
078000000000
ENDCHAR
STARTCHAR 006B
ENCODING 107
SWIDTH 984 0
DWIDTH 41 0
BBX 41 35 0 -4
BITMAP
000002000000
000001000000
000001800000
000001C00000
000001E00000
000001F00000
000001F80000
000001FC0000
000001FE0000
0007FFFF0000
003FFFFF8000
00FFFFFFC000
03FFFFFFE000
07FFFFFFF000
0FFFFFFFF800
0FFFFFFFFC00
1FFFFFFFFE00
3FFFFFFFFF00
3FFFFFFFFF80
3FFE0FFFFC00
7FF00FFFF800
7FC00FFFE000
7F000FFF8000
7E000FFE0000
7C000FFC0000
F8000FF00000
F8001FC00000
F0001F000000
E0001E000000
E00018000000
C00020000000
C00000000000
C00000000000
800000000000
800000000000
ENDCHAR
STARTCHAR 006C
ENCODING 108
SWIDTH 1080 0
DWIDTH 45 0
BBX 45 39 0 -6
BITMAP
000010000000
000010000000
000030000000
000070000000
0000F0000000
0001F0000000
0003F0000000
0007F0000000
000FF0000000
001FF0000000
003FFFFC0000
007FFFFF8000
00FFFFFFF000
01FFFFFFF800
03FFFFFFFE00
07FFFFFFFF00
0FFFFFFFFF80
1FFFFFFFFF80
3FFFFFFFFFC0
7FFFFFFFFFC0
FFFFFFFFFFE0
1FFFFFFFFFE0
0FFFFE00FFF0
03FFFE003FF0
00FFFE001FF0
007FFE0007F0
001FFE0003F8
0007FE0001F8
0001FF0001F8
0000FF0000F8
00003F000078
00000F000078
000003000038
000001000038
000000800018
000000000018
000000000008
000000000008
000000000008
ENDCHAR
STARTCHAR 006D
ENCODING 109
SWIDTH 984 0
DWIDTH 41 0
BBX 35 43 3 -8
BITMAP
003FFF0000
003FFF0000
003FFF0000
003FFF0000
003FFF0000
003FFF0000
003FFF0000
003FFF0000
003FFF0000
003FFF0000
003FFF0000
003FFF0000
003FFF0000
003FFF0000
003FFF0000
003FFF0000
003FFF0000
003FFF0000
003FFF0000
003FFF0000
003FFF0000
003FFF0000
003FFF0000
003FFF0000
FFFFFFFFE0
7FFFFFFFC0
3FFFFFFF80
1FFFFFFF00
0FFFFFFE00
07FFFFFC00
03FFFFF800
01FFFFF000
00FFFFE000
00FFFFE000
007FFFC000
003FFF8000
001FFF0000
000FFE0000
0007FC0000
0003F80000
0001F00000
0000E00000
0000400000
ENDCHAR
STARTCHAR 006E
ENCODING 110
SWIDTH 984 0
DWIDTH 41 0
BBX 41 33 0 -3
BITMAP
000020000000
000040000000
0000C0000000
0003C0000000
0007C0000000
000FC0000000
001FC0000000
003FC0000000
007FC0000000
00FFC0000000
01FFFFFFFF80
03FFFFFFFF80
07FFFFFFFF80
0FFFFFFFFF80
1FFFFFFFFF80
7FFFFFFFFF80
FFFFFFFFFF80
7FFFFFFFFF80
3FFFFFFFFF80
1FFFFFFFFF80
0FFFFFFFFF80
03FFFFFFFF80
01FFFFFFFF80
00FFC0000000
007FC0000000
003FC0000000
001FC0000000
000FC0000000
0007C0000000
0003C0000000
0001C0000000
0000C0000000
000040000000
ENDCHAR
STARTCHAR 006F
ENCODING 111
SWIDTH 984 0
DWIDTH 41 0
BBX 41 33 0 -3
BITMAP
000002000000
000001000000
000001800000
000001C00000
000001F00000
000001F80000
000001FC0000
000001FE0000
000001FF0000
000001FF8000
FFFFFFFFC000
FFFFFFFFE000
FFFFFFFFF000
FFFFFFFFF800
FFFFFFFFFC00
FFFFFFFFFE00
FFFFFFFFFF80
FFFFFFFFFF00
FFFFFFFFFE00
FFFFFFFFFC00
FFFFFFFFF000
FFFFFFFFE000
FFFFFFFFC000
000001FF8000
000001FF0000
000001FE0000
000001FC0000
000001F80000
000001F00000
000001E00000
000001C00000
000001800000
000002000000
ENDCHAR
STARTCHAR 0070
ENCODING 112
SWIDTH 984 0
DWIDTH 41 0
BBX 35 43 3 -8
BITMAP
0000400000
0000E00000
0001F00000
0003F80000
0003FC0000
0007FC0000
000FFE0000
001FFF0000
003FFF8000
007FFFC000
00FFFFE000
01FFFFF000
03FFFFF800
07FFFFFC00
0FFFFFFE00
1FFFFFFF00
1FFFFFFF80
3FFFFFFFC0
7FFFFFFFC0
FFFFFFFFE0
003FFF0000
003FFF0000
003FFF0000
003FFF0000
003FFF0000
003FFF0000
003FFF0000
003FFF0000
003FFF0000
003FFF0000
003FFF0000
003FFF0000
003FFF0000
003FFF0000
003FFF0000
003FFF0000
003FFF0000
003FFF0000
003FFF0000
003FFF0000
003FFF0000
003FFF0000
003FFF0000
ENDCHAR
STARTCHAR 0071
ENCODING 113
SWIDTH 984 0
DWIDTH 41 0
BBX 37 43 2 -8
BITMAP
0000004000
0000004000
000000E000
000001E000
000001F000
000003F000
000003F800
000007FC00
000007FC00
00000FFE00
00001FFE00
00001FFF00
FE003FFF00
FE003FFF80
FE007FFFC0
FE007FFFC0
FE00FFFFE0
FE01FFFFE0
FE01FFFFF0
FE03FFFFF8
FE0003F800
FE0003F800
FE0003F800
FE0003F800
FE0003F800
FE0003F800
FE0003F800
FE0003F800
FE0003F800
FE0003F800
FE0003F800
FE0007F000
7F0007F000
7F800FF000
7F801FF000
3FE03FE000
3FFFFFC000
1FFFFFC000
0FFFFF8000
07FFFF0000
03FFFE0000
00FFF80000
003FE00000
ENDCHAR
STARTCHAR 0072
ENCODING 114
SWIDTH 984 0
DWIDTH 41 0
BBX 41 35 0 -4
BITMAP
000010000000
000060000000
0001E0000000
0003E0000000
000FE0000000
003FE0000000
007FE0000000
01FFE0000000
07FFFFFC0000
1FFFFFFF8000
3FFFFFFFE000
FFFFFFFFF000
3FFFFFFFF800
0FFFFFFFFC00
03FFFFFFFE00
00FFE001FE00
007FE000FF00
001FE0007F00
0007E0003F00
0001E0003F80
0000E0003F80
000020003F80
000000003F80
000000003F80
000000003F00
000000007F00
00000000FF00
00000001FE00
001FFFFFFE00
001FFFFFFC00
001FFFFFF800
001FFFFFF000
001FFFFFE000
001FFFFF8000
001FFFFC0000
ENDCHAR
STARTCHAR 0073
ENCODING 115
SWIDTH 984 0
DWIDTH 41 0
BBX 41 32 0 -3
BITMAP
0001FFC00000
001FFFFC0000
007FFFFF0000
01FFFFFFC000
07FFFFFFE000
0FFFFFFFF800
1FFFFFFFFC00
3FFFFFFFFE00
3FFFFFFFFE00
7FFFFFFFFF00
7FFFFFFFFF00
FFFFFFFFFF00
FFFFFFFFFF80
FFFFFFFFFF80
FFFFFFFFFF80
FFFFFFFFFF00
7FFFFFFFFF00
7FFFFFFFFF00
3FFFFFFFFE00
3FFFFFFFFE00
1FFFFFFFFC00
0FFFFFFFF800
07FFFFFFE000
01FFFFFFC000
00FFFFFF0000
001FFFF80000
0003FFC00000
0003F0000000
0003E0000000
0003C0000000
000F00000000
001000000000
ENDCHAR
STARTCHAR 0074
ENCODING 116
SWIDTH 984 0
DWIDTH 41 0
BBX 41 34 0 -4
BITMAP
7FFFFFFFFF00
FFFFFFFFFF80
FFFFFFFFFF80
FFFFFFFFFF80
FFFFFFFFFF80
FFFFFFFFFF80
FFFFFFFFFF80
FFFFFFFFFF80
FFFFFFFFFF80
FFFFFFFFFF80
FFFFFFFFFF80
FFFFFFFFFF80
FFFFFFFFFF80
FFFFFFFFFF80
FFFFFFFFFF80
FFFFFFFFFF80
FFFFFFFFFF80
FFFFFFFFFF80
FFFFFFFFFF80
FFFFFFFFFF80
FFFFFFFFFF80
FFFFFFFFFF80
FFFFFFFFFF80
FFFFFFFFFF80
7FFFFFFFFF00
3FFFFFFFFE00
00007C000000
000078000000
0000F0000000
0000E0000000
0001C0000000
000180000000
000200000000
000200000000
ENDCHAR
STARTCHAR 0075
ENCODING 117
SWIDTH 984 0
DWIDTH 41 0
BBX 41 32 0 -3
BITMAP
0003FFE00000
001FFFFC0000
00FFFFFF8000
01FFFFFFC000
07FFFFFFF000
0FFFFFFFF800
1FFFFFFFFC00
3FFFFFFFFE00
7FFFFFFFFE00
7FFFFFFFFF00
7FFFFFFFFF00
FFFFFFFFFF00
FFFFFFFFFF80
FFFFFFFFFF80
FFFFFFFFFF80
FFFFFFFFFF00
7FFFFFFFFF00
7FFFFFFFFF00
3FFFFFFFFE00
3FFFFFFFFE00
1FFFFFFFFC00
0FFFFFFFF800
03FFFFFFF000
01FFFFFFC000
007FFFFF0000
000FFFFC0000
0000FFC00000
000007C00000
000003E00000
000001E00000
000000780000
000000040000
ENDCHAR
STARTCHAR 0076
ENCODING 118
SWIDTH 984 0
DWIDTH 41 0
BBX 41 34 0 -4
BITMAP
7FFFFFFFFF00
FFFFFFFFFF00
FFFFFFFFFF80
FFFFFFFFFF80
FFFFFFFFFF80
FFFFFFFFFF80
FFFFFFFFFF80
FFFFFFFFFF80
FFFFFFFFFF80
FFFFFFFFFF80
FFFFFFFFFF80
FFFFFFFFFF80
FFFFFFFFFF80
FFFFFFFFFF80
FFFFFFFFFF80
FFFFFFFFFF80
FFFFFFFFFF80
FFFFFFFFFF80
FFFFFFFFFF80
FFFFFFFFFF80
FFFFFFFFFF80
FFFFFFFFFF80
FFFFFFFFFF80
FFFFFFFFFF80
7FFFFFFFFF00
7FFFFFFFFE00
00003F000000
00000F000000
000007800000
000003800000
000001C00000
000000C00000
000000400000
000000200000
ENDCHAR
STARTCHAR 0077
ENCODING 119
SWIDTH 984 0
DWIDTH 41 0
BBX 41 40 0 -7
BITMAP
00003E000000
00007F000000
00007F000000
00007F000000
00C07F018000
03F1FF07E000
07FFFFEFF000
07FFFFFFF000
07FFFFFFF000
07FFFFFFF000
03FFFFFFE000
01FFFFFFC000
01FFFFFF8000
03FFE3FF8000
03FF80FF8000
03FF007FC000
3FFE003FFE00
7FFC001FFF00
FFFC001FFF00
FFFC001FFF80
FFFC001FFF80
7FFC001FFF00
7FFE003FFF00
1FFE003FFC00
03FF007F8000
01FFC1FF0000
01FFFFFF8000
01FFFFFFC000
03FFFFFFE000
07FFFFFFF000
07FFFFFFF000
07FFFFFFF000
07F9FF0FF000
03F07F07E000
01E07F03C000
00007F000000
00007F000000
00007F000000
00007E000000
00001C000000
ENDCHAR
STARTCHAR 0078
ENCODING 120
SWIDTH 984 0
DWIDTH 41 0
BBX 41 33 0 -3
BITMAP
0C7000000000
1EF000000000
1FF000000000
0FFF00000000
6FFF00000000
FE3E00000000
FC1E01800000
7C1E03C0C000
1C1F07E3E000
3C3F87E3E000
7FFF03FFE000
7FFC4FFFE000
37F9FFFFC000
07F9FFFFC000
0739FFFFEE00
0301FFCFFF00
0000FF03FF80
00007E01FF80
0000FE01FF00
0000FE01FE00
0001FE01F000
0003FE01F000
0007FE01F800
0003FF03FE00
0003FFFFFE00
0000BFFFFF00
00001FFFFE00
00001FFF1E00
00001FFF0000
00001F9F0000
00001F1F8000
00001E1F8000
0000000F0000
ENDCHAR
STARTCHAR 0079
ENCODING 121
SWIDTH 984 0
DWIDTH 41 0
BBX 41 36 0 -4
BITMAP
0007F8000000
001FFE03F000
007FFF0FFC00
00FFE3CFFE00
00FF801FC000
01FF001F8000
03FF001FCF00
07FF801FFF00
07FFC03FFE00
1FFFE03FFC00
7F8FF07FF800
FF07F07FE000
7F01F8FFC000
3F00FFFFE000
1E007FFE0000
0E003FF80000
00001FE00000
00003FE00000
00007FF00000
0000FFF80000
0003FFFC0000
0007FCFE0000
000FF8FF0000
001FF07F8000
003FE03FC000
00FFC01FE000
01FF800FF000
03FF0007F800
07FE0003FC00
0FFC0001FE00
1FF80001FF80
1FF00000FF00
1FE000007E00
0FC000003C00
070000001800
000000001000
ENDCHAR
STARTCHAR 007A
ENCODING 122
SWIDTH 984 0
DWIDTH 41 0
BBX 41 41 0 -7
BITMAP
000000400000
000000800000
000001800000
000003000000
000007000000
00000F000000
00001F000000
00001F000000
00001E000000
00003E000000
00003E000000
00003E000000
00003E000000
00007C000000
00007C000000
00007C000000
00007C000380
000078007E00
03E0F807FC00
1FF8F8FFF800
3FFCFFFFF000
7FFFFFFFE000
7C3FFFFF8000
F83FFFF00000
F83FFF000000
FCFFF0000000
7FFDF0000000
7FFBF8000000
3FF7FC000000
0FCFFE000000
000FFE000000
001F1E000000
001F1E000000
001E1E000000
001E1E000000
001F3E000000
001FFC000000
000FFC000000
000FF8000000
0007F0000000
0001C0000000
ENDCHAR
STARTCHAR 007B
ENCODING 123
SWIDTH 984 0
DWIDTH 41 0
BBX 41 39 0 -6
BITMAP
0000001FC000
0000001F8000
0000000F8000
0000000FC000
0000000FE000
00000005F000
00000004F800
000000047800
000000003C00
000000003E00
000000001E00
000000000E00
000000000F00
000000000F00
000000000700
000000000700
000000000780
000000000780
F00000000780
F00000000780
F00000000780
700000000700
700000000700
780000000F00
780000000F00
380000000E00
3C0000001E00
3E0000003E00
1E0000003C00
0F0000007800
0F800000F800
07C00001F000
03F00007E000
01FC001FC000
00FF00FF8000
007FFFFE0000
001FFFFC0000
0003FFE00000
00001C000000
ENDCHAR
STARTCHAR 007C
ENCODING 124
SWIDTH 984 0
DWIDTH 41 0
BBX 41 38 0 -6
BITMAP
03FC00000000
00F800000000
01F800000000
03F800000000
07D000000000
0F9000000000
0F1000000000
1E0000000000
3E0000000000
3C0000000000
380000000000
780000000000
780000000000
700000000000
F00000000000
F00000000000
F00000000000
F00000000000
F00000000780
F00000000780
F00000000700
700000000700
780000000F00
780000000F00
380000000E00
3C0000001E00
3C0000003E00
1E0000003C00
1F0000007800
0F800000F800
07C00001F000
03F00003E000
01F8000FC000
00FF007F8000
007FFFFF0000
001FFFFC0000
0007FFF00000
00007E000000
ENDCHAR
STARTCHAR 007D
ENCODING 125
SWIDTH 504 0
DWIDTH 21 0
BBX 0 0 0 0
BITMAP
ENDCHAR
STARTCHAR 007E
ENCODING 126
SWIDTH 504 0
DWIDTH 21 0
BBX 0 0 0 0
BITMAP
ENDCHAR
STARTCHAR 00A0
ENCODING 160
SWIDTH 240 0
DWIDTH 10 0
BBX 0 0 0 0
BITMAP
ENDCHAR
STARTCHAR 00A1
ENCODING 161
SWIDTH 336 0
DWIDTH 14 0
BBX 0 0 0 0
BITMAP
ENDCHAR
STARTCHAR 00A2
ENCODING 162
SWIDTH 552 0
DWIDTH 23 0
BBX 0 0 0 0
BITMAP
ENDCHAR
STARTCHAR 00A3
ENCODING 163
SWIDTH 504 0
DWIDTH 21 0
BBX 0 0 0 0
BITMAP
ENDCHAR
STARTCHAR 00A4
ENCODING 164
SWIDTH 504 0
DWIDTH 21 0
BBX 0 0 0 0
BITMAP
ENDCHAR
STARTCHAR 00A5
ENCODING 165
SWIDTH 624 0
DWIDTH 26 0
BBX 0 0 0 0
BITMAP
ENDCHAR
STARTCHAR 00A6
ENCODING 166
SWIDTH 504 0
DWIDTH 21 0
BBX 0 0 0 0
BITMAP
ENDCHAR
STARTCHAR 00A7
ENCODING 167
SWIDTH 504 0
DWIDTH 21 0
BBX 0 0 0 0
BITMAP
ENDCHAR
STARTCHAR 00A8
ENCODING 168
SWIDTH 504 0
DWIDTH 21 0
BBX 0 0 0 0
BITMAP
ENDCHAR
STARTCHAR 00A9
ENCODING 169
SWIDTH 816 0
DWIDTH 34 0
BBX 0 0 0 0
BITMAP
ENDCHAR
STARTCHAR 00AA
ENCODING 170
SWIDTH 312 0
DWIDTH 13 0
BBX 0 0 0 0
BITMAP
ENDCHAR
STARTCHAR 00AB
ENCODING 171
SWIDTH 456 0
DWIDTH 19 0
BBX 0 0 0 0
BITMAP
ENDCHAR
STARTCHAR 00AC
ENCODING 172
SWIDTH 504 0
DWIDTH 21 0
BBX 0 0 0 0
BITMAP
ENDCHAR
STARTCHAR 00AD
ENCODING 173
SWIDTH 984 0
DWIDTH 41 0
BBX 41 41 0 -7
BITMAP
000008000000
0003FFE00000
000FFFF80000
003F007E0000
00F8000F8000
01E00003C000
03C00001E000
07800000F000
0FC000107800
0EE000303800
1C7000701C00
383800F00E00
381C01F00E00
300E03F00600
700707F00700
7007FFF00700
6007FFF00300
6007FFF00300
E007FFF00380
E007FFF00380
E007FFF00380
E007FFF00380
E007FFF00380
E007FFF00300
6007FFF00300
7007FFF00700
700007F00700
700003F00600
380001F40E00
380000F60E00
1C0000771C00
1E000033BC00
0F000031F800
07800000F000
03C00001E000
01E00003C000
00F8000F8000
007E007F0000
001FFFFC0000
0007FFF00000
00007F000000
ENDCHAR
STARTCHAR 00AE
ENCODING 174
SWIDTH 816 0
DWIDTH 34 0
BBX 0 0 0 0
BITMAP
ENDCHAR
STARTCHAR 00AF
ENCODING 175
SWIDTH 336 0
DWIDTH 14 0
BBX 0 0 0 0
BITMAP
ENDCHAR
STARTCHAR 00B0
ENCODING 176
SWIDTH 336 0
DWIDTH 14 0
BBX 0 0 0 0
BITMAP
ENDCHAR
STARTCHAR 00B1
ENCODING 177
SWIDTH 504 0
DWIDTH 21 0
BBX 0 0 0 0
BITMAP
ENDCHAR
STARTCHAR 00B2
ENCODING 178
SWIDTH 504 0
DWIDTH 21 0
BBX 0 0 0 0
BITMAP
ENDCHAR
STARTCHAR 00B3
ENCODING 179
SWIDTH 504 0
DWIDTH 21 0
BBX 0 0 0 0
BITMAP
ENDCHAR
STARTCHAR 00B4
ENCODING 180
SWIDTH 504 0
DWIDTH 21 0
BBX 0 0 0 0
BITMAP
ENDCHAR
STARTCHAR 00B5
ENCODING 181
SWIDTH 576 0
DWIDTH 24 0
BBX 0 0 0 0
BITMAP
ENDCHAR
STARTCHAR 00B6
ENCODING 182
SWIDTH 504 0
DWIDTH 21 0
BBX 0 0 0 0
BITMAP
ENDCHAR
STARTCHAR 00B7
ENCODING 183
SWIDTH 240 0
DWIDTH 10 0
BBX 0 0 0 0
BITMAP
ENDCHAR
STARTCHAR 00B8
ENCODING 184
SWIDTH 504 0
DWIDTH 21 0
BBX 0 0 0 0
BITMAP
ENDCHAR
STARTCHAR 00B9
ENCODING 185
SWIDTH 504 0
DWIDTH 21 0
BBX 0 0 0 0
BITMAP
ENDCHAR
STARTCHAR 00BA
ENCODING 186
SWIDTH 360 0
DWIDTH 15 0
BBX 0 0 0 0
BITMAP
ENDCHAR
STARTCHAR 00BB
ENCODING 187
SWIDTH 456 0
DWIDTH 19 0
BBX 0 0 0 0
BITMAP
ENDCHAR
STARTCHAR 00BC
ENCODING 188
SWIDTH 840 0
DWIDTH 35 0
BBX 0 0 0 0
BITMAP
ENDCHAR
STARTCHAR 00BD
ENCODING 189
SWIDTH 960 0
DWIDTH 40 0
BBX 0 0 0 0
BITMAP
ENDCHAR
STARTCHAR 00BE
ENCODING 190
SWIDTH 840 0
DWIDTH 35 0
BBX 0 0 0 0
BITMAP
ENDCHAR
STARTCHAR 00BF
ENCODING 191
SWIDTH 360 0
DWIDTH 15 0
BBX 0 0 0 0
BITMAP
ENDCHAR
STARTCHAR 00C0
ENCODING 192
SWIDTH 768 0
DWIDTH 32 0
BBX 0 0 0 0
BITMAP
ENDCHAR
STARTCHAR 00C1
ENCODING 193
SWIDTH 768 0
DWIDTH 32 0
BBX 0 0 0 0
BITMAP
ENDCHAR
STARTCHAR 00C2
ENCODING 194
SWIDTH 768 0
DWIDTH 32 0
BBX 0 0 0 0
BITMAP
ENDCHAR
STARTCHAR 00C3
ENCODING 195
SWIDTH 768 0
DWIDTH 32 0
BBX 0 0 0 0
BITMAP
ENDCHAR
STARTCHAR 00C4
ENCODING 196
SWIDTH 768 0
DWIDTH 32 0
BBX 0 0 0 0
BITMAP
ENDCHAR
STARTCHAR 00C5
ENCODING 197
SWIDTH 768 0
DWIDTH 32 0
BBX 0 0 0 0
BITMAP
ENDCHAR
STARTCHAR 00C6
ENCODING 198
SWIDTH 1032 0
DWIDTH 43 0
BBX 0 0 0 0
BITMAP
ENDCHAR
STARTCHAR 00C7
ENCODING 199
SWIDTH 696 0
DWIDTH 29 0
BBX 0 0 0 0
BITMAP
ENDCHAR
STARTCHAR 00C8
ENCODING 200
SWIDTH 576 0
DWIDTH 24 0
BBX 0 0 0 0
BITMAP
ENDCHAR
STARTCHAR 00C9
ENCODING 201
SWIDTH 576 0
DWIDTH 24 0
BBX 0 0 0 0
BITMAP
ENDCHAR
STARTCHAR 00CA
ENCODING 202
SWIDTH 576 0
DWIDTH 24 0
BBX 0 0 0 0
BITMAP
ENDCHAR
STARTCHAR 00CB
ENCODING 203
SWIDTH 576 0
DWIDTH 24 0
BBX 0 0 0 0
BITMAP
ENDCHAR
STARTCHAR 00CC
ENCODING 204
SWIDTH 312 0
DWIDTH 13 0
BBX 0 0 0 0
BITMAP
ENDCHAR
STARTCHAR 00CD
ENCODING 205
SWIDTH 312 0
DWIDTH 13 0
BBX 0 0 0 0
BITMAP
ENDCHAR
STARTCHAR 00CE
ENCODING 206
SWIDTH 312 0
DWIDTH 13 0
BBX 0 0 0 0
BITMAP
ENDCHAR
STARTCHAR 00CF
ENCODING 207
SWIDTH 312 0
DWIDTH 13 0
BBX 0 0 0 0
BITMAP
ENDCHAR
STARTCHAR 00D0
ENCODING 208
SWIDTH 744 0
DWIDTH 31 0
BBX 0 0 0 0
BITMAP
ENDCHAR
STARTCHAR 00D1
ENCODING 209
SWIDTH 768 0
DWIDTH 32 0
BBX 0 0 0 0
BITMAP
ENDCHAR
STARTCHAR 00D2
ENCODING 210
SWIDTH 792 0
DWIDTH 33 0
BBX 0 0 0 0
BITMAP
ENDCHAR
STARTCHAR 00D3
ENCODING 211
SWIDTH 792 0
DWIDTH 33 0
BBX 0 0 0 0
BITMAP
ENDCHAR
STARTCHAR 00D4
ENCODING 212
SWIDTH 792 0
DWIDTH 33 0
BBX 0 0 0 0
BITMAP
ENDCHAR
STARTCHAR 00D5
ENCODING 213
SWIDTH 792 0
DWIDTH 33 0
BBX 0 0 0 0
BITMAP
ENDCHAR
STARTCHAR 00D6
ENCODING 214
SWIDTH 792 0
DWIDTH 33 0
BBX 0 0 0 0
BITMAP
ENDCHAR
STARTCHAR 00D7
ENCODING 215
SWIDTH 504 0
DWIDTH 21 0
BBX 0 0 0 0
BITMAP
ENDCHAR
STARTCHAR 00D8
ENCODING 216
SWIDTH 792 0
DWIDTH 33 0
BBX 0 0 0 0
BITMAP
ENDCHAR
STARTCHAR 00D9
ENCODING 217
SWIDTH 744 0
DWIDTH 31 0
BBX 0 0 0 0
BITMAP
ENDCHAR
STARTCHAR 00DA
ENCODING 218
SWIDTH 744 0
DWIDTH 31 0
BBX 0 0 0 0
BITMAP
ENDCHAR
STARTCHAR 00DB
ENCODING 219
SWIDTH 744 0
DWIDTH 31 0
BBX 0 0 0 0
BITMAP
ENDCHAR
STARTCHAR 00DC
ENCODING 220
SWIDTH 744 0
DWIDTH 31 0
BBX 0 0 0 0
BITMAP
ENDCHAR
STARTCHAR 00DD
ENCODING 221
SWIDTH 600 0
DWIDTH 25 0
BBX 0 0 0 0
BITMAP
ENDCHAR
STARTCHAR 00DE
ENCODING 222
SWIDTH 552 0
DWIDTH 23 0
BBX 0 0 0 0
BITMAP
ENDCHAR
STARTCHAR 00DF
ENCODING 223
SWIDTH 624 0
DWIDTH 26 0
BBX 0 0 0 0
BITMAP
ENDCHAR
STARTCHAR 00E0
ENCODING 224
SWIDTH 456 0
DWIDTH 19 0
BBX 0 0 0 0
BITMAP
ENDCHAR
STARTCHAR 00E1
ENCODING 225
SWIDTH 456 0
DWIDTH 19 0
BBX 0 0 0 0
BITMAP
ENDCHAR
STARTCHAR 00E2
ENCODING 226
SWIDTH 456 0
DWIDTH 19 0
BBX 0 0 0 0
BITMAP
ENDCHAR
STARTCHAR 00E3
ENCODING 227
SWIDTH 456 0
DWIDTH 19 0
BBX 0 0 0 0
BITMAP
ENDCHAR
STARTCHAR 00E4
ENCODING 228
SWIDTH 456 0
DWIDTH 19 0
BBX 0 0 0 0
BITMAP
ENDCHAR
STARTCHAR 00E5
ENCODING 229
SWIDTH 456 0
DWIDTH 19 0
BBX 0 0 0 0
BITMAP
ENDCHAR
STARTCHAR 00E6
ENCODING 230
SWIDTH 720 0
DWIDTH 30 0
BBX 0 0 0 0
BITMAP
ENDCHAR
STARTCHAR 00E7
ENCODING 231
SWIDTH 456 0
DWIDTH 19 0
BBX 0 0 0 0
BITMAP
ENDCHAR
STARTCHAR 00E8
ENCODING 232
SWIDTH 456 0
DWIDTH 19 0
BBX 0 0 0 0
BITMAP
ENDCHAR
STARTCHAR 00E9
ENCODING 233
SWIDTH 456 0
DWIDTH 19 0
BBX 0 0 0 0
BITMAP
ENDCHAR
STARTCHAR 00EA
ENCODING 234
SWIDTH 456 0
DWIDTH 19 0
BBX 0 0 0 0
BITMAP
ENDCHAR
STARTCHAR 00EB
ENCODING 235
SWIDTH 456 0
DWIDTH 19 0
BBX 0 0 0 0
BITMAP
ENDCHAR
STARTCHAR 00EC
ENCODING 236
SWIDTH 264 0
DWIDTH 11 0
BBX 0 0 0 0
BITMAP
ENDCHAR
STARTCHAR 00ED
ENCODING 237
SWIDTH 264 0
DWIDTH 11 0
BBX 0 0 0 0
BITMAP
ENDCHAR
STARTCHAR 00EE
ENCODING 238
SWIDTH 264 0
DWIDTH 11 0
BBX 0 0 0 0
BITMAP
ENDCHAR
STARTCHAR 00EF
ENCODING 239
SWIDTH 264 0
DWIDTH 11 0
BBX 0 0 0 0
BITMAP
ENDCHAR
STARTCHAR 00F0
ENCODING 240
SWIDTH 552 0
DWIDTH 23 0
BBX 0 0 0 0
BITMAP
ENDCHAR
STARTCHAR 00F1
ENCODING 241
SWIDTH 552 0
DWIDTH 23 0
BBX 0 0 0 0
BITMAP
ENDCHAR
STARTCHAR 00F2
ENCODING 242
SWIDTH 504 0
DWIDTH 21 0
BBX 0 0 0 0
BITMAP
ENDCHAR
STARTCHAR 00F3
ENCODING 243
SWIDTH 504 0
DWIDTH 21 0
BBX 0 0 0 0
BITMAP
ENDCHAR
STARTCHAR 00F4
ENCODING 244
SWIDTH 504 0
DWIDTH 21 0
BBX 0 0 0 0
BITMAP
ENDCHAR
STARTCHAR 00F5
ENCODING 245
SWIDTH 504 0
DWIDTH 21 0
BBX 0 0 0 0
BITMAP
ENDCHAR
STARTCHAR 00F6
ENCODING 246
SWIDTH 504 0
DWIDTH 21 0
BBX 0 0 0 0
BITMAP
ENDCHAR
STARTCHAR 00F7
ENCODING 247
SWIDTH 504 0
DWIDTH 21 0
BBX 0 0 0 0
BITMAP
ENDCHAR
STARTCHAR 00F8
ENCODING 248
SWIDTH 504 0
DWIDTH 21 0
BBX 0 0 0 0
BITMAP
ENDCHAR
STARTCHAR 00F9
ENCODING 249
SWIDTH 528 0
DWIDTH 22 0
BBX 0 0 0 0
BITMAP
ENDCHAR
STARTCHAR 00FA
ENCODING 250
SWIDTH 528 0
DWIDTH 22 0
BBX 0 0 0 0
BITMAP
ENDCHAR
STARTCHAR 00FB
ENCODING 251
SWIDTH 528 0
DWIDTH 22 0
BBX 0 0 0 0
BITMAP
ENDCHAR
STARTCHAR 00FC
ENCODING 252
SWIDTH 528 0
DWIDTH 22 0
BBX 0 0 0 0
BITMAP
ENDCHAR
STARTCHAR 00FD
ENCODING 253
SWIDTH 432 0
DWIDTH 18 0
BBX 0 0 0 0
BITMAP
ENDCHAR
STARTCHAR 00FE
ENCODING 254
SWIDTH 504 0
DWIDTH 21 0
BBX 0 0 0 0
BITMAP
ENDCHAR
STARTCHAR 00FF
ENCODING 255
SWIDTH 432 0
DWIDTH 18 0
BBX 0 0 0 0
BITMAP
ENDCHAR
STARTCHAR 0131
ENCODING 305
SWIDTH 264 0
DWIDTH 11 0
BBX 0 0 0 0
BITMAP
ENDCHAR
STARTCHAR 02C6
ENCODING 710
SWIDTH 504 0
DWIDTH 21 0
BBX 0 0 0 0
BITMAP
ENDCHAR
STARTCHAR 02C7
ENCODING 711
SWIDTH 504 0
DWIDTH 21 0
BBX 0 0 0 0
BITMAP
ENDCHAR
STARTCHAR 02C9
ENCODING 713
SWIDTH 504 0
DWIDTH 21 0
BBX 0 0 0 0
BITMAP
ENDCHAR
STARTCHAR 02D8
ENCODING 728
SWIDTH 504 0
DWIDTH 21 0
BBX 0 0 0 0
BITMAP
ENDCHAR
STARTCHAR 02D9
ENCODING 729
SWIDTH 504 0
DWIDTH 21 0
BBX 0 0 0 0
BITMAP
ENDCHAR
STARTCHAR 02DA
ENCODING 730
SWIDTH 504 0
DWIDTH 21 0
BBX 0 0 0 0
BITMAP
ENDCHAR
STARTCHAR 02DB
ENCODING 731
SWIDTH 504 0
DWIDTH 21 0
BBX 0 0 0 0
BITMAP
ENDCHAR
STARTCHAR 02DC
ENCODING 732
SWIDTH 504 0
DWIDTH 21 0
BBX 0 0 0 0
BITMAP
ENDCHAR
STARTCHAR 02DD
ENCODING 733
SWIDTH 504 0
DWIDTH 21 0
BBX 0 0 0 0
BITMAP
ENDCHAR
STARTCHAR 037E
ENCODING 894
SWIDTH 984 0
DWIDTH 41 0
BBX 41 41 0 -7
BITMAP
00001C000000
00001C000000
00001C000000
00001C000000
00001C000000
00001C000000
00001C000000
00001C000000
00001C000000
00001C000000
00001C000000
00001C000000
00001C000000
00001C000000
00001C000000
00001C000000
00001C000000
00001C000000
00001C000000
FFFFFFFFFF80
FFFFFFFFFF80
FFFFFFFFFF80
00001C000000
00001C000000
00001C000000
00001C000000
00001C000000
00001C000000
00001C000000
00001C000000
00001C000000
00001C000000
00001C000000
00001C000000
00001C000000
00001C000000
00001C000000
00001C000000
00001C000000
00001C000000
00001C000000
ENDCHAR
STARTCHAR 2013
ENCODING 8211
SWIDTH 552 0
DWIDTH 23 0
BBX 0 0 0 0
BITMAP
ENDCHAR
STARTCHAR 2014
ENCODING 8212
SWIDTH 1008 0
DWIDTH 42 0
BBX 0 0 0 0
BITMAP
ENDCHAR
STARTCHAR 2018
ENCODING 8216
SWIDTH 264 0
DWIDTH 11 0
BBX 0 0 0 0
BITMAP
ENDCHAR
STARTCHAR 2019
ENCODING 8217
SWIDTH 264 0
DWIDTH 11 0
BBX 0 0 0 0
BITMAP
ENDCHAR
STARTCHAR 201A
ENCODING 8218
SWIDTH 264 0
DWIDTH 11 0
BBX 0 0 0 0
BITMAP
ENDCHAR
STARTCHAR 201C
ENCODING 8220
SWIDTH 456 0
DWIDTH 19 0
BBX 0 0 0 0
BITMAP
ENDCHAR
STARTCHAR 201D
ENCODING 8221
SWIDTH 456 0
DWIDTH 19 0
BBX 0 0 0 0
BITMAP
ENDCHAR
STARTCHAR 201E
ENCODING 8222
SWIDTH 456 0
DWIDTH 19 0
BBX 0 0 0 0
BITMAP
ENDCHAR
STARTCHAR 2020
ENCODING 8224
SWIDTH 504 0
DWIDTH 21 0
BBX 0 0 0 0
BITMAP
ENDCHAR
STARTCHAR 2021
ENCODING 8225
SWIDTH 504 0
DWIDTH 21 0
BBX 0 0 0 0
BITMAP
ENDCHAR
STARTCHAR 2022
ENCODING 8226
SWIDTH 504 0
DWIDTH 21 0
BBX 0 0 0 0
BITMAP
ENDCHAR
STARTCHAR 2026
ENCODING 8230
SWIDTH 1008 0
DWIDTH 42 0
BBX 0 0 0 0
BITMAP
ENDCHAR
STARTCHAR 2039
ENCODING 8249
SWIDTH 312 0
DWIDTH 13 0
BBX 0 0 0 0
BITMAP
ENDCHAR
STARTCHAR 203A
ENCODING 8250
SWIDTH 312 0
DWIDTH 13 0
BBX 0 0 0 0
BITMAP
ENDCHAR
STARTCHAR 2044
ENCODING 8260
SWIDTH 168 0
DWIDTH 7 0
BBX 0 0 0 0
BITMAP
ENDCHAR
STARTCHAR 20A3
ENCODING 8355
SWIDTH 504 0
DWIDTH 21 0
BBX 0 0 0 0
BITMAP
ENDCHAR
STARTCHAR 20A4
ENCODING 8356
SWIDTH 504 0
DWIDTH 21 0
BBX 0 0 0 0
BITMAP
ENDCHAR
STARTCHAR 20A7
ENCODING 8359
SWIDTH 1008 0
DWIDTH 42 0
BBX 0 0 0 0
BITMAP
ENDCHAR
STARTCHAR 20AC
ENCODING 8364
SWIDTH 504 0
DWIDTH 21 0
BBX 0 0 0 0
BITMAP
ENDCHAR
STARTCHAR 2116
ENCODING 8470
SWIDTH 1128 0
DWIDTH 47 0
BBX 0 0 0 0
BITMAP
ENDCHAR
STARTCHAR 2122
ENCODING 8482
SWIDTH 744 0
DWIDTH 31 0
BBX 0 0 0 0
BITMAP
ENDCHAR
STARTCHAR 2202
ENCODING 8706
SWIDTH 504 0
DWIDTH 21 0
BBX 0 0 0 0
BITMAP
ENDCHAR
STARTCHAR 2206
ENCODING 8710
SWIDTH 528 0
DWIDTH 22 0
BBX 0 0 0 0
BITMAP
ENDCHAR
STARTCHAR 220F
ENCODING 8719
SWIDTH 744 0
DWIDTH 31 0
BBX 0 0 0 0
BITMAP
ENDCHAR
STARTCHAR 2211
ENCODING 8721
SWIDTH 600 0
DWIDTH 25 0
BBX 0 0 0 0
BITMAP
ENDCHAR
STARTCHAR 2212
ENCODING 8722
SWIDTH 504 0
DWIDTH 21 0
BBX 0 0 0 0
BITMAP
ENDCHAR
STARTCHAR 2215
ENCODING 8725
SWIDTH 168 0
DWIDTH 7 0
BBX 0 0 0 0
BITMAP
ENDCHAR
STARTCHAR 2219
ENCODING 8729
SWIDTH 240 0
DWIDTH 10 0
BBX 0 0 0 0
BITMAP
ENDCHAR
STARTCHAR 221A
ENCODING 8730
SWIDTH 504 0
DWIDTH 21 0
BBX 0 0 0 0
BITMAP
ENDCHAR
STARTCHAR 221E
ENCODING 8734
SWIDTH 504 0
DWIDTH 21 0
BBX 0 0 0 0
BITMAP
ENDCHAR
STARTCHAR 222B
ENCODING 8747
SWIDTH 336 0
DWIDTH 14 0
BBX 0 0 0 0
BITMAP
ENDCHAR
STARTCHAR 2248
ENCODING 8776
SWIDTH 504 0
DWIDTH 21 0
BBX 0 0 0 0
BITMAP
ENDCHAR
STARTCHAR 2264
ENCODING 8804
SWIDTH 504 0
DWIDTH 21 0
BBX 0 0 0 0
BITMAP
ENDCHAR
STARTCHAR 2265
ENCODING 8805
SWIDTH 504 0
DWIDTH 21 0
BBX 0 0 0 0
BITMAP
ENDCHAR
STARTCHAR F001
ENCODING 61441
SWIDTH 528 0
DWIDTH 22 0
BBX 0 0 0 0
BITMAP
ENDCHAR
STARTCHAR F002
ENCODING 61442
SWIDTH 528 0
DWIDTH 22 0
BBX 0 0 0 0
BITMAP
ENDCHAR
STARTCHAR FB01
ENCODING 64257
SWIDTH 528 0
DWIDTH 22 0
BBX 0 0 0 0
BITMAP
ENDCHAR
STARTCHAR FB02
ENCODING 64258
SWIDTH 528 0
DWIDTH 22 0
BBX 0 0 0 0
BITMAP
ENDCHAR
ENDFONT
